G04*
G04 #@! TF.GenerationSoftware,Altium Limited,Altium Designer,20.0.14 (345)*
G04*
G04 Layer_Color=16711935*
%FSAX44Y44*%
%MOMM*%
G71*
G01*
G75*
%ADD22R,1.1200X1.3700*%
%ADD23R,1.3700X1.1200*%
%ADD27C,0.1200*%
%ADD28P,1.8617X8X112.5*%
%ADD29C,1.7200*%
%ADD30C,2.1200*%
%ADD31R,2.1200X2.1200*%
%ADD32R,2.1200X2.1200*%
%ADD33C,0.5200*%
%ADD49R,0.5200X1.5200*%
%ADD50R,2.2200X1.7200*%
%ADD51R,1.9200X2.0200*%
%ADD52R,1.8700X2.0200*%
%ADD53R,1.6200X3.4200*%
%ADD54R,1.6200X1.1200*%
%ADD55R,4.4200X2.1200*%
%ADD56R,1.8200X2.6200*%
D22*
X00504001Y00863001D02*
D03*
X00524001D02*
D03*
X00486999Y00748046D02*
D03*
X00506999D02*
D03*
X00487000Y00770000D02*
D03*
X00507000D02*
D03*
X00486999Y00703892D02*
D03*
X00506999D02*
D03*
X00487000Y00726250D02*
D03*
X00507000D02*
D03*
D23*
X00447000Y00876000D02*
D03*
Y00896000D02*
D03*
X00405000Y00876000D02*
D03*
Y00896000D02*
D03*
X00426000Y00876000D02*
D03*
Y00896000D02*
D03*
X00355640Y00822750D02*
D03*
Y00842750D02*
D03*
D27*
X00530000Y00516000D02*
D03*
X00290000D02*
D03*
Y00956000D02*
D03*
D28*
X00501000Y00901500D02*
D03*
D29*
Y00936500D02*
D03*
D30*
X00445400Y00508000D02*
D03*
X00394600D02*
D03*
X00420000D02*
D03*
X00543000Y00817000D02*
D03*
Y00766200D02*
D03*
Y00690000D02*
D03*
Y00664600D02*
D03*
Y00715400D02*
D03*
Y00740800D02*
D03*
Y00791600D02*
D03*
D31*
X00369200Y00508000D02*
D03*
D32*
X00543000Y00639200D02*
D03*
D33*
X00445000Y00648250D02*
D03*
X00395500Y00712000D02*
D03*
X00372500Y00821500D02*
D03*
X00492500Y00840250D02*
D03*
X00447250Y00601500D02*
D03*
X00423750Y00642250D02*
D03*
X00446750Y00685250D02*
D03*
X00443750Y00773250D02*
D03*
X00482250Y00681000D02*
D03*
X00407250Y00567500D02*
D03*
Y00720000D02*
D03*
X00437000Y00730000D02*
D03*
X00428250Y00743500D02*
D03*
X00513000Y00815000D02*
D03*
X00447000Y00826000D02*
D03*
X00438396Y00842750D02*
D03*
X00395500Y00728000D02*
D03*
Y00755000D02*
D03*
X00409000Y00732000D02*
D03*
D49*
X00395750Y00929500D02*
D03*
X00402250D02*
D03*
X00408750D02*
D03*
X00415250D02*
D03*
X00421750D02*
D03*
D50*
X00377750Y00930500D02*
D03*
X00439750D02*
D03*
D51*
X00368750Y00956000D02*
D03*
X00448750D02*
D03*
D52*
X00397500D02*
D03*
X00420000D02*
D03*
D53*
X00458500Y00817000D02*
D03*
D54*
X00395500Y00840000D02*
D03*
Y00794000D02*
D03*
Y00817000D02*
D03*
D55*
X00300646Y00829000D02*
D03*
Y00897000D02*
D03*
D56*
X00382000Y00888000D02*
D03*
X00342000D02*
D03*
M02*
