G04*
G04 #@! TF.GenerationSoftware,Altium Limited,Altium Designer,20.0.14 (345)*
G04*
G04 Layer_Color=255*
%FSAX44Y44*%
%MOMM*%
G71*
G01*
G75*
%ADD13R,1.2500X1.0000*%
%ADD14R,1.0000X1.2500*%
%ADD15R,1.6000X1.0000*%
%ADD16R,2.1000X1.4000*%
%ADD17R,5.0000X0.8000*%
%ADD18O,0.3000X1.4000*%
%ADD19O,1.4000X0.3000*%
%ADD34P,1.7318X8X202.5*%
%ADD35C,1.6000*%
%ADD36C,2.0000*%
%ADD37R,2.0000X2.0000*%
%ADD38R,2.0000X2.0000*%
D13*
X00389000Y00535000D02*
D03*
Y00515000D02*
D03*
X00518445Y00631300D02*
D03*
Y00611300D02*
D03*
X00301000Y00777965D02*
D03*
Y00797965D02*
D03*
Y00643250D02*
D03*
Y00663250D02*
D03*
X00532000Y00540000D02*
D03*
Y00520000D02*
D03*
D14*
X00425439Y00810011D02*
D03*
X00405439D02*
D03*
X00409263Y00647111D02*
D03*
X00429263D02*
D03*
X00495100Y00582300D02*
D03*
X00475100D02*
D03*
X00440542Y00916500D02*
D03*
X00460542D02*
D03*
X00390289D02*
D03*
X00370289D02*
D03*
D15*
X00301000Y00850000D02*
D03*
Y00820000D02*
D03*
Y00734910D02*
D03*
Y00704910D02*
D03*
D16*
X00416000Y00553000D02*
D03*
Y00508000D02*
D03*
X00506000Y00553000D02*
D03*
Y00508000D02*
D03*
D17*
X00463000Y00870000D02*
D03*
X00373000D02*
D03*
D18*
X00381326Y00771212D02*
D03*
X00386325D02*
D03*
X00391326D02*
D03*
X00396325D02*
D03*
X00401326D02*
D03*
X00406325D02*
D03*
X00411326D02*
D03*
X00416326D02*
D03*
X00421325D02*
D03*
X00426326D02*
D03*
X00431325D02*
D03*
X00436326D02*
D03*
Y00687212D02*
D03*
X00431325D02*
D03*
X00426326D02*
D03*
X00421325D02*
D03*
X00416326D02*
D03*
X00411326D02*
D03*
X00406325D02*
D03*
X00401326D02*
D03*
X00396325D02*
D03*
X00391326D02*
D03*
X00386325D02*
D03*
X00381326D02*
D03*
D19*
X00450826Y00756712D02*
D03*
Y00751712D02*
D03*
Y00746712D02*
D03*
Y00741712D02*
D03*
Y00736712D02*
D03*
Y00731712D02*
D03*
Y00726712D02*
D03*
Y00721712D02*
D03*
Y00716712D02*
D03*
Y00711712D02*
D03*
Y00706712D02*
D03*
Y00701712D02*
D03*
X00366826D02*
D03*
Y00706712D02*
D03*
Y00711712D02*
D03*
Y00716712D02*
D03*
Y00721712D02*
D03*
Y00726712D02*
D03*
Y00731712D02*
D03*
Y00736712D02*
D03*
Y00741712D02*
D03*
Y00746712D02*
D03*
Y00751712D02*
D03*
Y00756712D02*
D03*
D34*
X00353000Y00551000D02*
D03*
D35*
X00318000D02*
D03*
D36*
X00413200Y00617000D02*
D03*
X00464000D02*
D03*
X00438600D02*
D03*
X00516000Y00872400D02*
D03*
Y00821600D02*
D03*
Y00745400D02*
D03*
Y00720000D02*
D03*
Y00770800D02*
D03*
Y00796200D02*
D03*
Y00847000D02*
D03*
D37*
X00489400Y00617000D02*
D03*
D38*
X00516000Y00694600D02*
D03*
M02*
