G04*
G04 #@! TF.GenerationSoftware,Altium Limited,Altium Designer,20.0.14 (345)*
G04*
G04 Layer_Physical_Order=1*
G04 Layer_Color=255*
%FSAX44Y44*%
%MOMM*%
G71*
G01*
G75*
%ADD10C,0.2500*%
%ADD11C,0.2000*%
%ADD13O,1.4000X0.3000*%
%ADD14O,0.3000X1.4000*%
%ADD15R,1.0000X1.2500*%
%ADD16R,1.2500X1.0000*%
%ADD17R,1.6000X1.0000*%
%ADD18R,2.1000X1.4000*%
%ADD19R,0.8000X5.0000*%
%ADD34C,0.5000*%
%ADD35P,1.7318X8X112.5*%
%ADD36C,1.6000*%
%ADD37C,2.0000*%
%ADD38R,2.0000X2.0000*%
%ADD39R,2.0000X2.0000*%
%ADD40C,0.4000*%
D10*
X00394600Y00546258D02*
G03*
X00394500Y00546500I-00000342J00000000D01*
G01*
X00436189Y00639440D02*
G03*
X00428750Y00621479I00017960J-00017960D01*
G01*
X00421311Y00509310D02*
G03*
X00428750Y00527271I-00017960J00017960D01*
G01*
X00467000Y00795479D02*
G03*
X00459561Y00813439I-00025400J00000000D01*
G01*
X00463000Y00746000D02*
G03*
X00467000Y00755657I-00009657J00009657D01*
G01*
X00456964Y00743500D02*
G03*
X00463000Y00746000I00000000J00008537D01*
G01*
X00472000Y00798624D02*
G03*
X00464561Y00816585I-00025400J00000000D01*
G01*
X00458550Y00738500D02*
G03*
X00467000Y00742000I00000000J00011950D01*
G01*
D02*
G03*
X00472000Y00754071I-00012071J00012071D01*
G01*
X00489779Y00723500D02*
G03*
X00507739Y00730939I00000000J00025400D01*
G01*
X00436189Y00639440D02*
X00445000Y00648250D01*
X00394600Y00508000D02*
Y00546258D01*
X00428750Y00576000D02*
Y00621479D01*
X00420000Y00508000D02*
X00421311Y00509310D01*
X00428750Y00527271D02*
Y00576000D01*
X00467000Y00755657D02*
Y00795479D01*
X00451000Y00743500D02*
X00456964D01*
X00451000Y00738500D02*
X00458550D01*
X00472000Y00754071D02*
Y00798624D01*
X00451000Y00723500D02*
X00489779D01*
X00507739Y00730939D02*
X00543000Y00766200D01*
X00447000Y00826000D02*
X00459561Y00813439D01*
X00438396Y00842750D02*
X00464561Y00816585D01*
D11*
X00477422Y00679000D02*
G03*
X00482250Y00681000I00000000J00006828D01*
G01*
X00384635Y00723500D02*
G03*
X00395500Y00728000I00000000J00015365D01*
G01*
X00385084Y00718500D02*
G03*
X00402865Y00725865I00000000J00025146D01*
G01*
X00385084Y00718500D02*
G03*
X00402865Y00725865I00000000J00025146D01*
G01*
X00445916Y00758500D02*
G03*
X00428135Y00751135I00000000J-00025146D01*
G01*
X00381500Y00769915D02*
G03*
X00388866Y00752134I00025146J00000000D01*
G01*
X00381500Y00769915D02*
G03*
X00388866Y00752134I00025146J00000000D01*
G01*
X00385084Y00718500D02*
G03*
X00402865Y00725865I00000000J00025146D01*
G01*
X00381500Y00769915D02*
G03*
X00388866Y00752134I00025146J00000000D01*
G01*
X00445916Y00758500D02*
G03*
X00428135Y00751135I00000000J-00025146D01*
G01*
X00385084Y00718500D02*
G03*
X00402865Y00725865I00000000J00025146D01*
G01*
X00445916Y00758500D02*
G03*
X00428135Y00751135I00000000J-00025146D01*
G01*
X00381500Y00769915D02*
G03*
X00388866Y00752134I00025146J00000000D01*
G01*
X00445916Y00758500D02*
G03*
X00428135Y00751135I00000000J-00025146D01*
G01*
X00411500Y00819979D02*
G03*
X00404061Y00837939I-00025400J00000000D01*
G01*
X00436750Y00680500D02*
G03*
X00440371Y00679000I00003621J00003621D01*
G01*
X00436501Y00681102D02*
G03*
X00436750Y00680500I00000852J00000000D01*
G01*
X00401416Y00553416D02*
G03*
X00407250Y00567500I-00014084J00014084D01*
G01*
X00358270Y00733500D02*
G03*
X00340310Y00726060I00000000J-00025400D01*
G01*
X00339249Y00745000D02*
G03*
X00354941Y00738500I00015692J00015692D01*
G01*
X00358707Y00728500D02*
G03*
X00357500Y00728000I00000000J-00001707D01*
G01*
X00357348Y00727848D02*
G03*
X00356000Y00724593I00003255J-00003255D01*
G01*
Y00656071D02*
G03*
X00361000Y00644000I00017071J00000000D01*
G01*
D02*
G03*
X00363414Y00643000I00002414J00002414D01*
G01*
X00529890Y00652310D02*
G03*
X00511929Y00659750I-00017960J-00017960D01*
G01*
X00386500Y00669225D02*
G03*
X00388250Y00665000I00005975J00000000D01*
G01*
D02*
G03*
X00400925Y00659750I00012675J00012675D01*
G01*
X00393750Y00669500D02*
G03*
X00405579Y00664600I00011829J00011829D01*
G01*
X00391500Y00674931D02*
G03*
X00393750Y00669500I00007681J00000000D01*
G01*
X00396500Y00678078D02*
G03*
X00398500Y00673250I00006828J00000000D01*
G01*
X00404250Y00677250D02*
G03*
X00410889Y00674500I00006639J00006639D01*
G01*
X00398500Y00673250D02*
G03*
X00406346Y00670000I00007846J00007846D01*
G01*
X00402000Y00682682D02*
G03*
X00404250Y00677250I00007682J00000000D01*
G01*
X00512479Y00670000D02*
G03*
X00530439Y00677439I00000000J00025400D01*
G01*
X00491579Y00674500D02*
G03*
X00509539Y00681939I00000000J00025400D01*
G01*
X00446750Y00685250D02*
G03*
X00441093Y00698907I-00019314J00000000D01*
G01*
X00423361Y00707389D02*
G03*
X00412229Y00712000I-00011132J-00011132D01*
G01*
X00431500Y00695714D02*
G03*
X00429000Y00701750I-00008537J00000000D01*
G01*
X00437000Y00730000D02*
G03*
X00436750Y00729396I00000604J-00000604D01*
G01*
Y00705371D02*
G03*
X00438250Y00701750I00005121J00000000D01*
G01*
X00437105Y00773250D02*
G03*
X00436501Y00773000I00000000J-00000855D01*
G01*
X00447449Y00748500D02*
G03*
X00439000Y00745000I00000000J-00011949D01*
G01*
X00407250Y00720000D02*
G03*
X00418773Y00724773I00000000J00016296D01*
G01*
X00448771Y00753500D02*
G03*
X00430810Y00746060I00000000J-00025400D01*
G01*
X00386500Y00765750D02*
G03*
X00387738Y00762762I00004225J00000000D01*
G01*
X00401750Y00772397D02*
G03*
X00401500Y00773000I-00000852J00000000D01*
G01*
X00400159Y00759659D02*
G03*
X00401750Y00763500I-00003841J00003841D01*
G01*
X00440371Y00679000D02*
X00477422D01*
X00395500Y00712000D02*
X00412229D01*
X00388865Y00752135D02*
X00409000Y00732000D01*
X00402865Y00725865D02*
X00409000Y00732000D01*
X00428135Y00751135D01*
X00411500Y00773000D02*
Y00819979D01*
X00396500Y00845500D02*
X00404061Y00837939D01*
X00367001Y00718500D02*
X00385084D01*
X00436501Y00681102D02*
Y00689000D01*
X00445916Y00758500D02*
X00451000D01*
X00381500Y00769915D02*
Y00773000D01*
X00394500Y00546500D02*
X00401416Y00553416D01*
X00339249Y00725000D02*
X00340310Y00726060D01*
X00354941Y00738500D02*
X00367001D01*
X00358270Y00733500D02*
X00367001D01*
X00358707Y00728500D02*
X00367001D01*
X00356000Y00656071D02*
Y00724593D01*
X00357348Y00727848D02*
X00357500Y00728000D01*
X00363414Y00643000D02*
X00390000D01*
X00400925Y00659750D02*
X00511929D01*
X00529890Y00652310D02*
X00543000Y00639200D01*
X00386500Y00669225D02*
Y00689000D01*
X00405579Y00664600D02*
X00543000D01*
X00391500Y00674931D02*
Y00689000D01*
X00410889Y00674500D02*
X00491579D01*
X00396500Y00678078D02*
Y00689000D01*
X00406346Y00670000D02*
X00512479D01*
X00530439Y00677439D02*
X00543000Y00690000D01*
X00402000Y00682682D02*
Y00687794D01*
X00509539Y00681939D02*
X00543000Y00715400D01*
X00438250Y00701750D02*
X00441093Y00698907D01*
X00431500Y00689000D02*
Y00695714D01*
X00423361Y00707389D02*
X00429000Y00701750D01*
X00437105Y00773250D02*
X00443750D01*
X00436750Y00705371D02*
Y00729396D01*
X00447449Y00748500D02*
X00451000D01*
X00418773Y00724773D02*
X00439000Y00745000D01*
X00428250Y00743500D02*
X00430810Y00746060D01*
X00448771Y00753500D02*
X00451000D01*
X00395500Y00755000D02*
X00400159Y00759659D01*
X00387738Y00762762D02*
X00395500Y00755000D01*
X00386500Y00765750D02*
Y00773000D01*
X00386500Y00773000D01*
X00401750Y00763500D02*
Y00772397D01*
X00367001Y00723500D02*
X00384635D01*
D13*
X00367001Y00758500D02*
D03*
Y00753500D02*
D03*
Y00748500D02*
D03*
Y00743500D02*
D03*
Y00738500D02*
D03*
Y00733500D02*
D03*
Y00728500D02*
D03*
Y00723500D02*
D03*
Y00718500D02*
D03*
Y00713500D02*
D03*
Y00708500D02*
D03*
Y00703500D02*
D03*
X00451000D02*
D03*
Y00708500D02*
D03*
Y00713500D02*
D03*
Y00718500D02*
D03*
Y00723500D02*
D03*
Y00728500D02*
D03*
Y00733500D02*
D03*
Y00738500D02*
D03*
Y00743500D02*
D03*
Y00748500D02*
D03*
Y00753500D02*
D03*
Y00758500D02*
D03*
D14*
X00381500Y00689000D02*
D03*
X00386500D02*
D03*
X00391500D02*
D03*
X00396500D02*
D03*
X00401500D02*
D03*
X00406500D02*
D03*
X00411500D02*
D03*
X00416501D02*
D03*
X00421500D02*
D03*
X00426501D02*
D03*
X00431500D02*
D03*
X00436501D02*
D03*
Y00773000D02*
D03*
X00431500D02*
D03*
X00426501D02*
D03*
X00421500D02*
D03*
X00416501D02*
D03*
X00411500D02*
D03*
X00406500D02*
D03*
X00401500D02*
D03*
X00396500D02*
D03*
X00391500D02*
D03*
X00386500D02*
D03*
X00381500D02*
D03*
D15*
X00390000Y00643000D02*
D03*
X00410000D02*
D03*
X00374500Y00546500D02*
D03*
X00394500D02*
D03*
X00448750Y00576000D02*
D03*
X00428750D02*
D03*
X00279000Y00650000D02*
D03*
X00299000D02*
D03*
X00279000Y00821000D02*
D03*
X00299000D02*
D03*
D16*
X00448000Y00535250D02*
D03*
Y00555250D02*
D03*
X00339249Y00725000D02*
D03*
Y00745000D02*
D03*
X00396500Y00845500D02*
D03*
Y00865500D02*
D03*
X00370574Y00845499D02*
D03*
Y00865499D02*
D03*
X00275000Y00606000D02*
D03*
Y00586000D02*
D03*
D17*
X00396500Y00884500D02*
D03*
Y00914500D02*
D03*
X00370574Y00884500D02*
D03*
Y00914500D02*
D03*
D18*
X00300000Y00618501D02*
D03*
Y00573501D02*
D03*
X00390000Y00618501D02*
D03*
Y00573501D02*
D03*
D19*
X00297000Y00691000D02*
D03*
Y00781000D02*
D03*
D34*
X00425940Y00907060D02*
G03*
X00407979Y00914500I-00017960J-00017960D01*
G01*
X00447250Y00579621D02*
G03*
X00448750Y00576000I00005121J00000000D01*
G01*
X00448750D02*
G03*
X00448000Y00574189I00001811J-00001811D01*
G01*
X00410000Y00643000D02*
G03*
X00411811Y00642250I00001811J00001811D01*
G01*
X00531733Y00796267D02*
G03*
X00543000Y00791600I00011267J00011267D01*
G01*
X00297000Y00691000D02*
G03*
X00311084Y00696834I00000000J00019917D01*
G01*
X00297000Y00654829D02*
G03*
X00299000Y00650000I00006828J00000000D01*
G01*
X00307667Y00776582D02*
G03*
X00297000Y00781000I-00010667J-00010668D01*
G01*
X00299000Y00821000D02*
G03*
X00297000Y00816171I00004828J-00004828D01*
G01*
X00298022Y00618501D02*
G03*
X00280061Y00611061I00000000J-00025400D01*
G01*
X00418629Y00491750D02*
G03*
X00436590Y00499189I00000000J00025400D01*
G01*
X00342500Y00495750D02*
G03*
X00352157Y00491750I00009657J00009657D01*
G01*
X00338250Y00506010D02*
G03*
X00342500Y00495750I00014510J00000000D01*
G01*
X00381940Y00565440D02*
G03*
X00374500Y00547479I00017960J-00017960D01*
G01*
X00448000Y00535250D02*
G03*
X00445400Y00528974I00006277J-00006277D01*
G01*
X00280060Y00580940D02*
G03*
X00298020Y00573501I00017960J00017960D01*
G01*
X00447250Y00579621D02*
Y00601500D01*
X00411811Y00642250D02*
X00423750D01*
X00370574Y00845499D02*
X00372500Y00843574D01*
Y00821500D02*
Y00843574D01*
X00370574Y00865500D02*
X00370574Y00865499D01*
X00370574Y00865500D02*
Y00884500D01*
X00396500Y00914500D02*
X00407979D01*
X00425940Y00907060D02*
X00427707Y00905293D01*
Y00905293D02*
X00492500Y00840500D01*
Y00840250D02*
Y00840500D01*
X00427707Y00905293D02*
Y00905293D01*
X00396500Y00914500D02*
X00396500Y00914500D01*
X00370574Y00914500D02*
X00396500D01*
X00396500Y00884500D02*
X00396500Y00884500D01*
X00396500Y00865500D02*
Y00884500D01*
X00448000Y00555250D02*
Y00574189D01*
X00513000Y00815000D02*
X00531733Y00796267D01*
X00297000Y00654829D02*
Y00691000D01*
Y00781000D02*
Y00816171D01*
X00311084Y00696834D02*
X00339249Y00725000D01*
X00307667Y00776582D02*
X00339249Y00745000D01*
X00298022Y00618501D02*
X00300000D01*
X00275000Y00606000D02*
X00280061Y00611061D01*
X00445400Y00508000D02*
Y00528974D01*
X00436590Y00499189D02*
X00445400Y00508000D01*
X00338250Y00573501D02*
X00390000D01*
X00300000D02*
X00338250D01*
X00352157Y00491750D02*
X00418629D01*
X00338250Y00506010D02*
Y00573501D01*
X00381940Y00565440D02*
X00390000Y00573501D01*
X00374500Y00546500D02*
Y00547479D01*
X00298020Y00573501D02*
X00300000D01*
X00275000Y00586000D02*
X00280060Y00580940D01*
X00300000Y00618501D02*
X00390000D01*
Y00643000D01*
X00279000Y00650001D02*
X00279000Y00650000D01*
X00279000Y00650001D02*
Y00821000D01*
D35*
X00501000Y00901500D02*
D03*
D36*
Y00936500D02*
D03*
D37*
X00445400Y00508000D02*
D03*
X00394600D02*
D03*
X00420000D02*
D03*
X00543000Y00817000D02*
D03*
Y00766200D02*
D03*
Y00690000D02*
D03*
Y00664600D02*
D03*
Y00715400D02*
D03*
Y00740800D02*
D03*
Y00791600D02*
D03*
D38*
X00369200Y00508000D02*
D03*
D39*
X00543000Y00639200D02*
D03*
D40*
X00445000Y00648250D02*
D03*
X00395500Y00712000D02*
D03*
X00372500Y00821500D02*
D03*
X00492500Y00840250D02*
D03*
X00447250Y00601500D02*
D03*
X00423750Y00642250D02*
D03*
X00446750Y00685250D02*
D03*
X00443750Y00773250D02*
D03*
X00482250Y00681000D02*
D03*
X00407250Y00567500D02*
D03*
Y00720000D02*
D03*
X00437000Y00730000D02*
D03*
X00428250Y00743500D02*
D03*
X00513000Y00815000D02*
D03*
X00447000Y00826000D02*
D03*
X00438396Y00842750D02*
D03*
X00395500Y00728000D02*
D03*
Y00755000D02*
D03*
X00409000Y00732000D02*
D03*
M02*
