G04*
G04 #@! TF.GenerationSoftware,Altium Limited,Altium Designer,20.0.14 (345)*
G04*
G04 Layer_Physical_Order=1*
G04 Layer_Color=255*
%FSAX44Y44*%
%MOMM*%
G71*
G01*
G75*
%ADD11C,0.2500*%
%ADD13R,1.2500X1.0000*%
%ADD14R,1.0000X1.2500*%
%ADD15R,1.6000X1.0000*%
%ADD16R,2.1000X1.4000*%
%ADD17R,5.0000X0.8000*%
%ADD18O,0.3000X1.4000*%
%ADD19O,1.4000X0.3000*%
%ADD34P,1.7318X8X202.5*%
%ADD35C,1.6000*%
%ADD36C,2.0000*%
%ADD37R,2.0000X2.0000*%
%ADD38R,2.0000X2.0000*%
%ADD39C,0.6000*%
D11*
X00316275Y00704910D02*
X00337194D01*
X00387858Y00515000D02*
Y00516142D01*
X00401326Y00762000D02*
Y00771212D01*
Y00756158D02*
Y00762000D01*
X00512826Y00508000D02*
X00537337D01*
X00416000D02*
X00460756D01*
X00429998Y00600202D02*
X00464542Y00565658D01*
X00381000Y00647111D02*
X00409263D01*
X00356921D02*
X00381000D01*
X00387858Y00535000D02*
Y00596900D01*
X00301244Y00764794D02*
Y00777965D01*
X00425958Y00646938D02*
X00429263D01*
X00456184Y00584708D02*
X00475100D01*
X00518445Y00611300D02*
X00526796D01*
X00531750Y00616255D01*
Y00831249D01*
X00516000Y00847000D02*
X00531750Y00831249D01*
X00357632Y00736712D02*
X00366826D01*
X00357378Y00736966D02*
X00357632Y00736712D01*
X00357378Y00736966D02*
Y00793750D01*
X00366633Y00803005D01*
X00405130D01*
X00405439Y00803314D01*
Y00810011D01*
X00387858Y00535000D02*
X00389000D01*
X00384556Y00600202D02*
X00387858Y00596900D01*
X00298450Y00600202D02*
X00384556D01*
X00286004Y00612648D02*
X00298450Y00600202D01*
X00286004Y00612648D02*
Y00860425D01*
X00289179Y00863600D01*
X00311023D01*
X00335243Y00839380D01*
Y00730250D02*
Y00839380D01*
Y00730250D02*
X00338781Y00726712D01*
X00366826D01*
X00401326Y00678936D02*
Y00687212D01*
Y00678936D02*
X00404114Y00676148D01*
X00301000Y00777965D02*
X00301244D01*
Y00764794D02*
X00311404Y00754634D01*
Y00720852D02*
Y00754634D01*
X00391668Y00710438D02*
X00400737D01*
X00406325Y00704850D01*
Y00687212D02*
Y00704850D01*
X00450826Y00721712D02*
X00465484D01*
X00504952Y00682244D01*
X00527996D01*
X00528250Y00682498D01*
Y00809350D01*
X00516000Y00821600D02*
X00528250Y00809350D01*
X00450826Y00736712D02*
X00474076D01*
X00482600Y00745236D01*
Y00751586D01*
X00461518Y00772668D02*
X00482600Y00751586D01*
X00450826Y00741712D02*
X00461518Y00742950D01*
X00439928Y00746712D02*
X00450826D01*
X00289560Y00838560D02*
X00301000Y00850000D01*
X00289560Y00809405D02*
Y00838560D01*
Y00809405D02*
X00301000Y00797965D01*
X00290576Y00724486D02*
X00301000Y00734910D01*
X00290576Y00673674D02*
Y00724486D01*
Y00673674D02*
X00301000Y00663250D01*
Y00820000D02*
X00309626D01*
X00316992Y00812634D01*
Y00705627D02*
Y00812634D01*
X00316275Y00704910D02*
X00316992Y00705627D01*
X00301000Y00704910D02*
X00316275D01*
X00337194D02*
X00348996Y00716712D01*
X00366826D01*
X00401326Y00756158D02*
X00408946Y00748538D01*
X00475100Y00582300D02*
Y00584708D01*
X00396325Y00695918D02*
X00400431Y00700024D01*
X00396325Y00687212D02*
Y00695918D01*
X00436326Y00687212D02*
Y00705531D01*
X00381326Y00760531D02*
X00436326Y00705531D01*
X00381326Y00760531D02*
Y00771212D01*
X00391326Y00676109D02*
Y00687212D01*
Y00676109D02*
X00396875Y00670560D01*
X00412750D01*
X00436326Y00754110D02*
Y00771212D01*
X00434678Y00752462D02*
X00436326Y00754110D01*
X00434678Y00726102D02*
Y00752462D01*
Y00726102D02*
X00441452Y00719328D01*
Y00688848D02*
Y00719328D01*
Y00688848D02*
X00443738Y00686562D01*
Y00622138D02*
Y00686562D01*
X00438600Y00617000D02*
X00443738Y00622138D01*
X00441452Y00763778D02*
X00441706Y00764032D01*
X00441452Y00752716D02*
Y00763778D01*
Y00752716D02*
X00442456Y00751712D01*
X00450826D01*
X00429263Y00646938D02*
Y00647111D01*
X00425958Y00609600D02*
Y00646938D01*
Y00609600D02*
X00430808Y00604750D01*
X00451750D01*
X00464000Y00617000D01*
X00500371Y00710229D02*
X00516000Y00694600D01*
X00500371Y00710229D02*
Y00747277D01*
X00467106Y00780542D02*
X00500371Y00747277D01*
X00377698Y00780542D02*
X00467106D01*
X00377444Y00780288D02*
X00377698Y00780542D01*
X00377444Y00758698D02*
Y00780288D01*
Y00758698D02*
X00386325Y00749817D01*
Y00687212D02*
Y00749817D01*
X00413200Y00617000D02*
X00429998Y00600202D01*
X00473075D01*
X00476504Y00603631D01*
Y00631046D01*
X00476758Y00631300D01*
X00518445D01*
X00537337Y00508000D02*
X00540512Y00511175D01*
Y00556260D01*
X00531114Y00565658D02*
X00540512Y00556260D01*
X00464542Y00565658D02*
X00531114D01*
X00467614Y00756712D02*
X00475788Y00748538D01*
X00450826Y00756712D02*
X00467614D01*
X00431325Y00677891D02*
Y00687212D01*
X00409263Y00655828D02*
X00431325Y00677891D01*
X00409263Y00647111D02*
Y00655828D01*
X00436326Y00670260D02*
Y00687212D01*
X00419354Y00653288D02*
X00436326Y00670260D01*
X00419354Y00647352D02*
Y00653288D01*
X00349250Y00731712D02*
X00366826D01*
X00344424Y00736538D02*
X00349250Y00731712D01*
X00344424Y00736538D02*
Y00923925D01*
X00348361Y00927862D01*
X00457200D01*
X00460542Y00924520D01*
Y00916500D02*
Y00924520D01*
X00377444Y00650667D02*
X00381000Y00647111D01*
X00377444Y00650667D02*
Y00721458D01*
X00377190Y00721712D02*
X00377444Y00721458D01*
X00366826Y00721712D02*
X00377190D01*
X00387858Y00515000D02*
X00389000D01*
X00353000Y00551000D02*
X00387858Y00516142D01*
X00425439Y00810011D02*
Y00866815D01*
X00428625Y00870000D01*
X00463000D01*
X00405439Y00810011D02*
Y00866775D01*
X00402214Y00870000D02*
X00405439Y00866775D01*
X00373000Y00870000D02*
X00402214D01*
X00411446Y00553000D02*
X00416000D01*
X00393446Y00535000D02*
X00411446Y00553000D01*
X00389000Y00535000D02*
X00393446D01*
X00525318Y00540000D02*
X00532000D01*
X00512318Y00553000D02*
X00525318Y00540000D01*
X00506000Y00553000D02*
X00512318D01*
X00398024Y00758698D02*
X00401326Y00762000D01*
X00389627Y00758698D02*
X00398024D01*
X00386325Y00762000D02*
X00389627Y00758698D01*
X00386325Y00762000D02*
Y00771212D01*
X00489400Y00602346D02*
Y00617000D01*
Y00602346D02*
X00495100Y00596646D01*
Y00582300D02*
Y00596646D01*
X00506588Y00611300D02*
X00518445D01*
X00500888Y00617000D02*
X00506588Y00611300D01*
X00489400Y00617000D02*
X00500888D01*
X00460756Y00508000D02*
X00506000D01*
X00524826Y00520000D02*
X00532000D01*
X00512826Y00508000D02*
X00524826Y00520000D01*
X00506000Y00508000D02*
X00512826D01*
X00409263Y00633857D02*
Y00647111D01*
Y00633857D02*
X00413200Y00629920D01*
Y00617000D02*
Y00629920D01*
X00353060Y00643250D02*
X00356921Y00647111D01*
X00301000Y00643250D02*
X00353060D01*
X00370289Y00894505D02*
Y00916500D01*
Y00894505D02*
X00373000Y00891794D01*
Y00870000D02*
Y00891794D01*
X00390289Y00916500D02*
X00440542D01*
X00416000Y00553000D02*
X00506000D01*
X00460542Y00894252D02*
Y00916500D01*
Y00894252D02*
X00463000Y00891794D01*
Y00870000D02*
Y00891794D01*
D13*
X00389000Y00535000D02*
D03*
Y00515000D02*
D03*
X00518445Y00631300D02*
D03*
Y00611300D02*
D03*
X00301000Y00777965D02*
D03*
Y00797965D02*
D03*
Y00643250D02*
D03*
Y00663250D02*
D03*
X00532000Y00540000D02*
D03*
Y00520000D02*
D03*
D14*
X00425439Y00810011D02*
D03*
X00405439D02*
D03*
X00409263Y00647111D02*
D03*
X00429263D02*
D03*
X00495100Y00582300D02*
D03*
X00475100D02*
D03*
X00440542Y00916500D02*
D03*
X00460542D02*
D03*
X00390289D02*
D03*
X00370289D02*
D03*
D15*
X00301000Y00850000D02*
D03*
Y00820000D02*
D03*
Y00734910D02*
D03*
Y00704910D02*
D03*
D16*
X00416000Y00553000D02*
D03*
Y00508000D02*
D03*
X00506000Y00553000D02*
D03*
Y00508000D02*
D03*
D17*
X00463000Y00870000D02*
D03*
X00373000D02*
D03*
D18*
X00381326Y00771212D02*
D03*
X00386325D02*
D03*
X00391326D02*
D03*
X00396325D02*
D03*
X00401326D02*
D03*
X00406325D02*
D03*
X00411326D02*
D03*
X00416326D02*
D03*
X00421325D02*
D03*
X00426326D02*
D03*
X00431325D02*
D03*
X00436326D02*
D03*
Y00687212D02*
D03*
X00431325D02*
D03*
X00426326D02*
D03*
X00421325D02*
D03*
X00416326D02*
D03*
X00411326D02*
D03*
X00406325D02*
D03*
X00401326D02*
D03*
X00396325D02*
D03*
X00391326D02*
D03*
X00386325D02*
D03*
X00381326D02*
D03*
D19*
X00450826Y00756712D02*
D03*
Y00751712D02*
D03*
Y00746712D02*
D03*
Y00741712D02*
D03*
Y00736712D02*
D03*
Y00731712D02*
D03*
Y00726712D02*
D03*
Y00721712D02*
D03*
Y00716712D02*
D03*
Y00711712D02*
D03*
Y00706712D02*
D03*
Y00701712D02*
D03*
X00366826D02*
D03*
Y00706712D02*
D03*
Y00711712D02*
D03*
Y00716712D02*
D03*
Y00721712D02*
D03*
Y00726712D02*
D03*
Y00731712D02*
D03*
Y00736712D02*
D03*
Y00741712D02*
D03*
Y00746712D02*
D03*
Y00751712D02*
D03*
Y00756712D02*
D03*
D34*
X00353000Y00551000D02*
D03*
D35*
X00318000D02*
D03*
D36*
X00413200Y00617000D02*
D03*
X00464000D02*
D03*
X00438600D02*
D03*
X00516000Y00872400D02*
D03*
Y00821600D02*
D03*
Y00745400D02*
D03*
Y00720000D02*
D03*
Y00770800D02*
D03*
Y00796200D02*
D03*
Y00847000D02*
D03*
D37*
X00489400Y00617000D02*
D03*
D38*
X00516000Y00694600D02*
D03*
D39*
X00404114Y00676148D02*
D03*
X00311404Y00720852D02*
D03*
X00391668Y00710438D02*
D03*
X00461518Y00772668D02*
D03*
Y00742950D02*
D03*
X00439928Y00746712D02*
D03*
X00316275Y00704910D02*
D03*
X00408946Y00748538D02*
D03*
X00456184Y00584708D02*
D03*
X00400431Y00700024D02*
D03*
X00412750Y00670560D02*
D03*
X00441706Y00764032D02*
D03*
X00475788Y00748538D02*
D03*
X00419354Y00647352D02*
D03*
M02*
