G04*
G04 #@! TF.GenerationSoftware,Altium Limited,Altium Designer,20.0.14 (345)*
G04*
G04 Layer_Color=16711935*
%FSAX44Y44*%
%MOMM*%
G71*
G01*
G75*
%ADD57C,0.5000*%
%ADD58C,0.1000*%
%ADD59C,0.0500*%
G36*
X00541000Y00924000D02*
X00461000D01*
X00463000Y00932000D01*
X00466500Y00939500D01*
X00471000Y00945250D01*
X00476000Y00950250D01*
X00483250Y00954750D01*
X00490000Y00957500D01*
X00497750Y00959000D01*
X00505250Y00958750D01*
X00512250Y00957500D01*
X00519500Y00954500D01*
X00525000Y00951000D01*
X00530500Y00946000D01*
X00534750Y00940250D01*
X00539000Y00931250D01*
X00541000Y00924000D01*
D02*
G37*
D57*
X00369001Y00771000D02*
D03*
X00342000Y00897000D02*
D03*
D58*
X00541000Y00919000D02*
G03*
X00541000Y00919000I-00040000J00000000D01*
G01*
X00453000Y00875500D02*
Y00895492D01*
X00441000Y00875500D02*
Y00895492D01*
Y00875500D02*
X00453000D01*
X00441000Y00895492D02*
X00453000D01*
X00364000Y00686000D02*
Y00776000D01*
Y00686000D02*
X00454000D01*
Y00776000D01*
X00364000D02*
X00454000D01*
X00390508Y00637000D02*
Y00649000D01*
X00410500Y00637000D02*
Y00649000D01*
X00390508D02*
X00410500D01*
X00390508Y00637000D02*
X00410500D01*
X00369750Y00927500D02*
Y00977500D01*
X00447750Y00927500D02*
Y00977500D01*
X00369750D02*
X00447750D01*
X00369750Y00927500D02*
X00447750D01*
X00442000Y00534750D02*
Y00554742D01*
X00454000Y00534750D02*
Y00554742D01*
X00442000Y00534750D02*
X00454000D01*
X00442000Y00554742D02*
X00454000D01*
X00333250Y00725508D02*
X00345249D01*
X00333250Y00745500D02*
X00345249D01*
X00333250Y00725508D02*
Y00745500D01*
X00345249Y00725508D02*
Y00745500D01*
X00388750Y00883500D02*
Y00915500D01*
X00404250Y00883500D02*
Y00915500D01*
X00388750Y00883500D02*
X00404250D01*
X00388750Y00915500D02*
X00404250D01*
X00390500Y00846008D02*
X00402500D01*
X00390500Y00866000D02*
X00402500D01*
X00390500Y00846008D02*
Y00866000D01*
X00402500Y00846008D02*
Y00866000D01*
X00364575Y00846008D02*
X00376575D01*
X00364575Y00866000D02*
X00376575D01*
X00364575Y00846008D02*
Y00866000D01*
X00376575Y00846008D02*
Y00866000D01*
X00503500Y00857001D02*
X00523493D01*
X00503500Y00869000D02*
X00523493D01*
X00503500Y00857001D02*
Y00869000D01*
X00523493Y00857001D02*
Y00869000D01*
X00362824Y00883500D02*
Y00915500D01*
X00378324Y00883500D02*
Y00915500D01*
X00362824Y00883500D02*
X00378324D01*
X00362824Y00915500D02*
X00378324D01*
X00356500Y00520700D02*
X00381900D01*
Y00495300D02*
Y00520700D01*
X00356500Y00495300D02*
Y00520700D01*
X00381900Y00514350D02*
X00388250Y00520700D01*
X00400950D01*
X00407300Y00514350D01*
Y00501650D02*
Y00514350D01*
X00400950Y00495300D02*
X00407300Y00501650D01*
X00388250Y00495300D02*
X00400950D01*
X00381900Y00501650D02*
X00388250Y00495300D01*
X00356500D02*
X00381900D01*
X00407300Y00501650D02*
X00413650Y00495300D01*
X00426350D01*
X00432700Y00501650D01*
Y00514350D01*
X00426350Y00520700D02*
X00432700Y00514350D01*
X00413650Y00520700D02*
X00426350D01*
X00407300Y00514350D02*
X00413650Y00520700D01*
X00432700Y00514350D02*
X00439050Y00520700D01*
X00451750D01*
X00458100Y00514350D01*
Y00501650D02*
Y00514350D01*
X00451750Y00495300D02*
X00458100Y00501650D01*
X00439050Y00495300D02*
X00451750D01*
X00432700Y00501650D02*
X00439050Y00495300D01*
X00411000Y00875500D02*
Y00895492D01*
X00399000Y00875500D02*
Y00895492D01*
Y00875500D02*
X00411000D01*
X00399000Y00895492D02*
X00411000D01*
X00432000Y00875500D02*
Y00895492D01*
X00420000Y00875500D02*
Y00895492D01*
Y00875500D02*
X00432000D01*
X00420000Y00895492D02*
X00432000D01*
X00375009Y00540500D02*
Y00552500D01*
X00395000Y00540500D02*
Y00552500D01*
X00375009D02*
X00395000D01*
X00375009Y00540500D02*
X00395000D01*
X00448242Y00570000D02*
Y00582000D01*
X00428250Y00570000D02*
Y00582000D01*
Y00570000D02*
X00448242D01*
X00428250Y00582000D02*
X00448242D01*
X00278500Y00656000D02*
X00298492D01*
X00278500Y00644000D02*
X00298492D01*
X00278500D02*
Y00656000D01*
X00298492Y00644000D02*
Y00656000D01*
X00278500Y00827000D02*
X00298492D01*
X00278500Y00815000D02*
X00298492D01*
X00278500D02*
Y00827000D01*
X00298492Y00815000D02*
Y00827000D01*
X00281000Y00586508D02*
Y00606500D01*
X00269000Y00586508D02*
Y00606500D01*
X00281000D01*
X00269000Y00586508D02*
X00281000D01*
X00486499Y00742046D02*
X00506491D01*
X00486499Y00754046D02*
X00506491D01*
X00486499Y00742046D02*
Y00754046D01*
X00506491Y00742046D02*
Y00754046D01*
X00486500Y00764000D02*
X00506492D01*
X00486500Y00776000D02*
X00506492D01*
X00486500Y00764000D02*
Y00776000D01*
X00506492Y00764000D02*
Y00776000D01*
X00486499Y00697892D02*
X00506491D01*
X00486499Y00709892D02*
X00506491D01*
X00486499Y00697892D02*
Y00709892D01*
X00506491Y00697892D02*
Y00709892D01*
X00486500Y00720250D02*
X00506492D01*
X00486500Y00732250D02*
X00506492D01*
X00486500Y00720250D02*
Y00732250D01*
X00506492Y00720250D02*
Y00732250D01*
X00349640Y00823258D02*
X00361640D01*
X00349640Y00843250D02*
X00361640D01*
Y00823258D02*
Y00843250D01*
X00349640Y00823258D02*
Y00843250D01*
X00278397Y00826000D02*
X00322897D01*
X00278397Y00900004D02*
X00322897D01*
X00278396Y00842750D02*
X00322896D01*
X00278397Y00826000D02*
Y00900004D01*
X00322897Y00826000D02*
Y00900004D01*
X00337000Y00901501D02*
X00387000D01*
X00337000Y00874502D02*
Y00901501D01*
Y00874502D02*
X00387000D01*
Y00901501D01*
X00530300Y00785250D02*
X00536650Y00778900D01*
X00530300Y00785250D02*
Y00797950D01*
X00536650Y00804300D01*
X00549350D01*
X00555700Y00797950D01*
Y00785250D02*
Y00797950D01*
X00549350Y00778900D02*
X00555700Y00785250D01*
X00530300Y00734450D02*
X00536650Y00728100D01*
X00530300Y00734450D02*
Y00747150D01*
X00536650Y00753500D01*
X00549350D01*
X00555700Y00747150D01*
Y00734450D02*
Y00747150D01*
X00549350Y00728100D02*
X00555700Y00734450D01*
X00549350Y00702700D02*
X00555700Y00709050D01*
Y00721750D01*
X00549350Y00728100D02*
X00555700Y00721750D01*
X00536650Y00728100D02*
X00549350D01*
X00530300Y00721750D02*
X00536650Y00728100D01*
X00530300Y00709050D02*
Y00721750D01*
Y00709050D02*
X00536650Y00702700D01*
X00530300Y00683650D02*
X00536650Y00677300D01*
X00530300Y00683650D02*
Y00696350D01*
X00536650Y00702700D01*
X00549350D01*
X00555700Y00696350D01*
Y00683650D02*
Y00696350D01*
X00549350Y00677300D02*
X00555700Y00683650D01*
Y00626500D02*
Y00651900D01*
X00549350D02*
X00555700Y00658250D01*
Y00670950D01*
X00549350Y00677300D02*
X00555700Y00670950D01*
X00536650Y00677300D02*
X00549350D01*
X00530300Y00670950D02*
X00536650Y00677300D01*
X00530300Y00658250D02*
Y00670950D01*
Y00658250D02*
X00536650Y00651900D01*
X00530300Y00626500D02*
X00555700D01*
X00530300Y00651900D02*
X00555700D01*
X00530300Y00626500D02*
Y00651900D01*
X00549350Y00753500D02*
X00555700Y00759850D01*
Y00772550D01*
X00549350Y00778900D02*
X00555700Y00772550D01*
X00536650Y00778900D02*
X00549350D01*
X00530300Y00772550D02*
X00536650Y00778900D01*
X00530300Y00759850D02*
Y00772550D01*
Y00759850D02*
X00536650Y00753500D01*
X00549350Y00804300D02*
X00555700Y00810650D01*
Y00823350D01*
X00549350Y00829700D02*
X00555700Y00823350D01*
X00536650Y00829700D02*
X00549350D01*
X00530300Y00823350D02*
X00536650Y00829700D01*
X00530300Y00810650D02*
Y00823350D01*
Y00810650D02*
X00536650Y00804300D01*
D59*
X00299999Y00566000D02*
X00389999D01*
X00299999D02*
Y00626000D01*
X00389999D01*
Y00566000D02*
Y00626000D01*
M02*
