G04*
G04 #@! TF.GenerationSoftware,Altium Limited,Altium Designer,20.0.14 (345)*
G04*
G04 Layer_Color=32768*
%FSAX44Y44*%
%MOMM*%
G71*
G01*
G75*
%ADD12C,0.0500*%
G36*
X00434793Y00874875D02*
X00434931Y00874861D01*
X00435084Y00874806D01*
X00435237Y00874736D01*
X00435375Y00874626D01*
X00435417Y00874542D01*
X00435458Y00874459D01*
X00435486Y00874362D01*
X00435500Y00874251D01*
Y00874237D01*
Y00874196D01*
X00435486Y00874140D01*
X00435472Y00874071D01*
X00435444Y00873974D01*
X00435403Y00873877D01*
X00435347Y00873780D01*
X00435278Y00873669D01*
X00429980Y00866651D01*
X00434723D01*
X00434779Y00866637D01*
X00434862Y00866624D01*
X00434945Y00866596D01*
X00435042Y00866568D01*
X00435139Y00866513D01*
X00435223Y00866443D01*
X00435237Y00866429D01*
X00435250Y00866402D01*
X00435292Y00866360D01*
X00435320Y00866291D01*
X00435361Y00866207D01*
X00435403Y00866124D01*
X00435417Y00866013D01*
X00435431Y00865902D01*
Y00865889D01*
Y00865847D01*
X00435417Y00865791D01*
X00435403Y00865708D01*
X00435375Y00865625D01*
X00435347Y00865528D01*
X00435292Y00865445D01*
X00435223Y00865361D01*
X00435209Y00865348D01*
X00435181Y00865320D01*
X00435139Y00865292D01*
X00435070Y00865250D01*
X00434987Y00865209D01*
X00434890Y00865167D01*
X00434793Y00865153D01*
X00434668Y00865140D01*
X00428372D01*
X00428330Y00865153D01*
X00428191Y00865167D01*
X00428039Y00865223D01*
X00427886Y00865292D01*
X00427748Y00865403D01*
X00427706Y00865486D01*
X00427664Y00865570D01*
X00427637Y00865667D01*
X00427623Y00865778D01*
Y00865791D01*
Y00865833D01*
X00427637Y00865889D01*
X00427650Y00865958D01*
X00427678Y00866041D01*
X00427720Y00866138D01*
X00427775Y00866235D01*
X00427845Y00866346D01*
X00433142Y00873363D01*
X00428399D01*
X00428344Y00873377D01*
X00428261Y00873391D01*
X00428177Y00873419D01*
X00428080Y00873461D01*
X00427997Y00873516D01*
X00427914Y00873585D01*
X00427900Y00873599D01*
X00427872Y00873627D01*
X00427845Y00873669D01*
X00427803Y00873724D01*
X00427761Y00873807D01*
X00427720Y00873904D01*
X00427706Y00874001D01*
X00427692Y00874126D01*
Y00874140D01*
Y00874182D01*
X00427706Y00874237D01*
X00427720Y00874321D01*
X00427748Y00874404D01*
X00427789Y00874501D01*
X00427845Y00874598D01*
X00427914Y00874681D01*
X00427928Y00874695D01*
X00427956Y00874709D01*
X00427997Y00874750D01*
X00428053Y00874778D01*
X00428136Y00874820D01*
X00428233Y00874861D01*
X00428330Y00874875D01*
X00428455Y00874889D01*
X00434751D01*
X00434793Y00874875D01*
D02*
G37*
G36*
X00418844Y00875763D02*
X00418913Y00875749D01*
X00419011Y00875707D01*
X00419135Y00875652D01*
X00419274Y00875555D01*
X00419440Y00875430D01*
X00419635Y00875250D01*
X00419648Y00875236D01*
X00419690Y00875180D01*
X00419773Y00875111D01*
X00419856Y00875000D01*
X00419967Y00874889D01*
X00420078Y00874750D01*
X00420342Y00874459D01*
X00420356D01*
X00420383Y00874487D01*
X00420439Y00874515D01*
X00420508Y00874542D01*
X00420592Y00874584D01*
X00420702Y00874639D01*
X00420827Y00874695D01*
X00420952Y00874736D01*
X00421257Y00874847D01*
X00421590Y00874945D01*
X00421964Y00875000D01*
X00422339Y00875028D01*
X00422422D01*
X00422519Y00875014D01*
X00422644Y00875000D01*
X00422797Y00874972D01*
X00422991Y00874945D01*
X00423185Y00874889D01*
X00423407Y00874820D01*
X00423643Y00874736D01*
X00423892Y00874626D01*
X00424156Y00874487D01*
X00424419Y00874334D01*
X00424683Y00874140D01*
X00424932Y00873918D01*
X00425182Y00873669D01*
X00425432Y00873377D01*
X00425445Y00873363D01*
X00425487Y00873308D01*
X00425542Y00873225D01*
X00425612Y00873114D01*
X00425695Y00872961D01*
X00425792Y00872795D01*
X00425903Y00872601D01*
X00426000Y00872379D01*
X00426111Y00872129D01*
X00426222Y00871866D01*
X00426319Y00871588D01*
X00426402Y00871283D01*
X00426472Y00870978D01*
X00426527Y00870645D01*
X00426569Y00870299D01*
X00426583Y00869952D01*
Y00869924D01*
Y00869869D01*
X00426569Y00869772D01*
Y00869633D01*
X00426541Y00869466D01*
X00426527Y00869272D01*
X00426485Y00869051D01*
X00426430Y00868815D01*
X00426375Y00868565D01*
X00426291Y00868288D01*
X00426208Y00868010D01*
X00426097Y00867733D01*
X00425959Y00867442D01*
X00425806Y00867150D01*
X00425626Y00866859D01*
X00425418Y00866582D01*
X00425404Y00866568D01*
X00425362Y00866513D01*
X00425293Y00866443D01*
X00425196Y00866332D01*
X00425071Y00866221D01*
X00424918Y00866083D01*
X00424752Y00865944D01*
X00424558Y00865791D01*
X00424350Y00865653D01*
X00424114Y00865514D01*
X00423864Y00865375D01*
X00423587Y00865264D01*
X00423296Y00865153D01*
X00422991Y00865084D01*
X00422658Y00865029D01*
X00422325Y00865015D01*
X00422242D01*
X00422145Y00865029D01*
X00422006Y00865042D01*
X00421853Y00865056D01*
X00421659Y00865098D01*
X00421451Y00865153D01*
X00421229Y00865209D01*
X00420994Y00865292D01*
X00420730Y00865403D01*
X00420480Y00865528D01*
X00420217Y00865680D01*
X00419953Y00865875D01*
X00419690Y00866083D01*
X00419440Y00866332D01*
X00419191Y00866610D01*
X00419177Y00866624D01*
X00419135Y00866679D01*
X00419080Y00866762D01*
X00419011Y00866873D01*
X00418913Y00867012D01*
X00418816Y00867178D01*
X00418705Y00867372D01*
X00418594Y00867580D01*
X00418497Y00867816D01*
X00418386Y00868080D01*
X00418289Y00868357D01*
X00418192Y00868662D01*
X00418123Y00868967D01*
X00418067Y00869300D01*
X00418026Y00869633D01*
X00418012Y00869994D01*
Y00870007D01*
Y00870077D01*
X00418026Y00870174D01*
Y00870299D01*
X00418054Y00870465D01*
X00418067Y00870659D01*
X00418109Y00870867D01*
X00418151Y00871103D01*
X00418220Y00871353D01*
X00418289Y00871616D01*
X00418386Y00871907D01*
X00418497Y00872185D01*
X00418622Y00872476D01*
X00418789Y00872767D01*
X00418955Y00873058D01*
X00419163Y00873350D01*
X00419149Y00873363D01*
X00419108Y00873405D01*
X00419052Y00873461D01*
X00418983Y00873544D01*
X00418899Y00873641D01*
X00418802Y00873738D01*
X00418581Y00873988D01*
X00418372Y00874265D01*
X00418192Y00874542D01*
X00418123Y00874667D01*
X00418067Y00874792D01*
X00418026Y00874903D01*
X00418012Y00875000D01*
Y00875014D01*
Y00875055D01*
X00418026Y00875111D01*
X00418040Y00875180D01*
X00418067Y00875264D01*
X00418109Y00875361D01*
X00418164Y00875444D01*
X00418248Y00875541D01*
X00418262Y00875555D01*
X00418289Y00875583D01*
X00418345Y00875610D01*
X00418400Y00875652D01*
X00418484Y00875707D01*
X00418581Y00875735D01*
X00418678Y00875763D01*
X00418789Y00875777D01*
X00418802D01*
X00418844Y00875763D01*
D02*
G37*
G36*
X00412520Y00874986D02*
X00412631Y00874958D01*
X00412770Y00874903D01*
X00412922Y00874820D01*
X00413033Y00874681D01*
X00413089Y00874598D01*
X00413130Y00874501D01*
X00413144Y00874376D01*
X00413158Y00874251D01*
Y00867525D01*
X00415640Y00869869D01*
X00415654Y00869883D01*
X00415682Y00869896D01*
X00415724Y00869938D01*
X00415793Y00869980D01*
X00415959Y00870049D01*
X00416057Y00870077D01*
X00416167Y00870091D01*
X00416223D01*
X00416278Y00870077D01*
X00416348Y00870063D01*
X00416431Y00870035D01*
X00416528Y00869994D01*
X00416611Y00869938D01*
X00416708Y00869855D01*
X00416722Y00869841D01*
X00416750Y00869813D01*
X00416778Y00869758D01*
X00416819Y00869702D01*
X00416875Y00869619D01*
X00416903Y00869522D01*
X00416930Y00869411D01*
X00416944Y00869300D01*
Y00869286D01*
Y00869245D01*
X00416930Y00869189D01*
X00416916Y00869120D01*
X00416889Y00869037D01*
X00416833Y00868940D01*
X00416778Y00868856D01*
X00416694Y00868759D01*
X00412908Y00865223D01*
X00412895Y00865209D01*
X00412853Y00865181D01*
X00412784Y00865126D01*
X00412714Y00865070D01*
X00412617Y00865015D01*
X00412506Y00864959D01*
X00412395Y00864931D01*
X00412270Y00864918D01*
X00412243D01*
X00412173Y00864931D01*
X00412062Y00864959D01*
X00411951Y00865029D01*
X00411841Y00865126D01*
X00411785Y00865195D01*
X00411730Y00865278D01*
X00411688Y00865375D01*
X00411660Y00865500D01*
X00411632Y00865625D01*
Y00865778D01*
Y00874251D01*
Y00874265D01*
Y00874279D01*
X00411646Y00874362D01*
X00411674Y00874487D01*
X00411730Y00874626D01*
X00411813Y00874764D01*
X00411951Y00874889D01*
X00412035Y00874931D01*
X00412146Y00874972D01*
X00412257Y00874986D01*
X00412395Y00875000D01*
X00412423D01*
X00412520Y00874986D01*
D02*
G37*
G36*
X00310958Y00666171D02*
X00311069Y00666158D01*
X00311166Y00666116D01*
X00311249Y00666074D01*
X00311305Y00666047D01*
X00311360Y00666005D01*
X00311388Y00665991D01*
X00311402Y00665977D01*
X00311485Y00665894D01*
X00311541Y00665811D01*
X00311582Y00665714D01*
X00311610Y00665630D01*
X00311624Y00665561D01*
X00311638Y00665506D01*
Y00665464D01*
Y00665450D01*
X00311624Y00665325D01*
X00311610Y00665228D01*
X00311596Y00665159D01*
X00311582Y00665131D01*
X00308143Y00656672D01*
X00308115Y00656616D01*
X00308074Y00656561D01*
X00307976Y00656450D01*
X00307879Y00656380D01*
X00307852Y00656366D01*
X00307838Y00656352D01*
X00307754Y00656297D01*
X00307671Y00656255D01*
X00307547Y00656200D01*
X00307463Y00656186D01*
X00307061D01*
X00306992Y00656214D01*
X00306867Y00656269D01*
X00306798Y00656297D01*
X00306756Y00656325D01*
X00306728Y00656339D01*
X00306714Y00656352D01*
X00306631Y00656408D01*
X00306576Y00656477D01*
X00306520Y00656533D01*
X00306479Y00656574D01*
X00306437Y00656644D01*
X00306423Y00656658D01*
Y00656672D01*
X00302984Y00665131D01*
X00302956Y00665242D01*
X00302942Y00665353D01*
X00302928Y00665422D01*
Y00665436D01*
Y00665450D01*
X00302942Y00665561D01*
X00302970Y00665672D01*
X00303011Y00665755D01*
X00303053Y00665838D01*
X00303095Y00665908D01*
X00303136Y00665949D01*
X00303164Y00665977D01*
X00303178Y00665991D01*
X00303261Y00666060D01*
X00303358Y00666102D01*
X00303538Y00666158D01*
X00303608Y00666171D01*
X00303663Y00666185D01*
X00303719D01*
X00303885Y00666171D01*
X00304024Y00666116D01*
X00304149Y00666033D01*
X00304246Y00665949D01*
X00304315Y00665866D01*
X00304357Y00665783D01*
X00304384Y00665727D01*
X00304398Y00665714D01*
X00305119Y00663925D01*
X00309446D01*
X00310168Y00665714D01*
X00310251Y00665866D01*
X00310362Y00665991D01*
X00310473Y00666074D01*
X00310584Y00666130D01*
X00310681Y00666158D01*
X00310764Y00666171D01*
X00310833Y00666185D01*
X00310847D01*
X00310958Y00666171D01*
D02*
G37*
G36*
X00317324Y00666074D02*
X00317435Y00666060D01*
X00317546Y00666019D01*
X00317629Y00665977D01*
X00317768Y00665852D01*
X00317851Y00665714D01*
X00317906Y00665575D01*
X00317934Y00665450D01*
X00317948Y00665367D01*
Y00665353D01*
Y00665339D01*
Y00656866D01*
Y00656713D01*
X00317920Y00656588D01*
X00317892Y00656463D01*
X00317851Y00656366D01*
X00317795Y00656283D01*
X00317740Y00656214D01*
X00317629Y00656117D01*
X00317518Y00656047D01*
X00317407Y00656020D01*
X00317338Y00656006D01*
X00317310D01*
X00317185Y00656020D01*
X00317074Y00656047D01*
X00316963Y00656103D01*
X00316866Y00656158D01*
X00316797Y00656214D01*
X00316727Y00656269D01*
X00316686Y00656297D01*
X00316672Y00656311D01*
X00312886Y00659847D01*
X00312803Y00659944D01*
X00312747Y00660028D01*
X00312692Y00660125D01*
X00312664Y00660208D01*
X00312650Y00660277D01*
X00312636Y00660333D01*
Y00660374D01*
Y00660388D01*
X00312650Y00660499D01*
X00312678Y00660610D01*
X00312705Y00660707D01*
X00312761Y00660790D01*
X00312803Y00660846D01*
X00312830Y00660901D01*
X00312858Y00660929D01*
X00312872Y00660943D01*
X00312969Y00661026D01*
X00313052Y00661082D01*
X00313149Y00661123D01*
X00313232Y00661151D01*
X00313302Y00661165D01*
X00313357Y00661179D01*
X00313413D01*
X00313524Y00661165D01*
X00313621Y00661137D01*
X00313787Y00661068D01*
X00313857Y00661026D01*
X00313898Y00660985D01*
X00313926Y00660971D01*
X00313940Y00660957D01*
X00316422Y00658613D01*
Y00665339D01*
X00316436Y00665464D01*
X00316450Y00665589D01*
X00316492Y00665686D01*
X00316547Y00665769D01*
X00316658Y00665908D01*
X00316811Y00665991D01*
X00316949Y00666047D01*
X00317060Y00666074D01*
X00317157Y00666088D01*
X00317185D01*
X00317324Y00666074D01*
D02*
G37*
G36*
X00297714Y00665963D02*
X00298033Y00665908D01*
X00298338Y00665838D01*
X00298629Y00665727D01*
X00298906Y00665617D01*
X00299156Y00665492D01*
X00299392Y00665339D01*
X00299614Y00665201D01*
X00299808Y00665062D01*
X00299974Y00664909D01*
X00300113Y00664784D01*
X00300238Y00664660D01*
X00300335Y00664563D01*
X00300404Y00664493D01*
X00300446Y00664438D01*
X00300460Y00664424D01*
X00300654Y00664147D01*
X00300834Y00663869D01*
X00300987Y00663578D01*
X00301112Y00663287D01*
X00301222Y00663009D01*
X00301320Y00662732D01*
X00301389Y00662455D01*
X00301458Y00662205D01*
X00301500Y00661969D01*
X00301542Y00661747D01*
X00301569Y00661553D01*
X00301583Y00661387D01*
Y00661248D01*
X00301597Y00661151D01*
Y00661096D01*
Y00661068D01*
X00301583Y00660707D01*
X00301555Y00660360D01*
X00301500Y00660028D01*
X00301417Y00659723D01*
X00301333Y00659431D01*
X00301236Y00659154D01*
X00301139Y00658890D01*
X00301042Y00658669D01*
X00300931Y00658447D01*
X00300834Y00658266D01*
X00300737Y00658100D01*
X00300654Y00657975D01*
X00300585Y00657864D01*
X00300529Y00657795D01*
X00300487Y00657739D01*
X00300474Y00657726D01*
X00300238Y00657462D01*
X00299988Y00657226D01*
X00299739Y00657032D01*
X00299475Y00656866D01*
X00299225Y00656713D01*
X00298962Y00656588D01*
X00298712Y00656491D01*
X00298463Y00656408D01*
X00298241Y00656352D01*
X00298033Y00656311D01*
X00297839Y00656269D01*
X00297686Y00656255D01*
X00297547Y00656242D01*
X00297450Y00656228D01*
X00294538D01*
X00294427Y00656242D01*
X00294330Y00656269D01*
X00294233Y00656297D01*
X00294150Y00656339D01*
X00294094Y00656394D01*
X00294039Y00656422D01*
X00294011Y00656450D01*
X00293997Y00656463D01*
X00293928Y00656547D01*
X00293872Y00656644D01*
X00293831Y00656727D01*
X00293803Y00656810D01*
X00293789Y00656880D01*
X00293775Y00656935D01*
Y00656977D01*
Y00656991D01*
Y00665214D01*
X00293789Y00665325D01*
X00293817Y00665422D01*
X00293845Y00665519D01*
X00293886Y00665603D01*
X00293928Y00665658D01*
X00293969Y00665714D01*
X00293983Y00665741D01*
X00293997Y00665755D01*
X00294094Y00665825D01*
X00294177Y00665880D01*
X00294274Y00665922D01*
X00294358Y00665949D01*
X00294427Y00665963D01*
X00294482Y00665977D01*
X00297367D01*
X00297714Y00665963D01*
D02*
G37*
%LPC*%
G36*
X00422283Y00873530D02*
X00422200D01*
X00422117Y00873516D01*
X00422006Y00873502D01*
X00421881Y00873488D01*
X00421729Y00873447D01*
X00421576Y00873405D01*
X00421424Y00873336D01*
Y00873322D01*
X00421451Y00873308D01*
X00421507Y00873225D01*
X00421590Y00873114D01*
X00421687Y00872989D01*
X00421784Y00872837D01*
X00421867Y00872698D01*
X00421923Y00872559D01*
X00421951Y00872448D01*
Y00872434D01*
Y00872407D01*
X00421937Y00872351D01*
X00421923Y00872282D01*
X00421895Y00872213D01*
X00421867Y00872143D01*
X00421812Y00872060D01*
X00421743Y00871991D01*
X00421729Y00871977D01*
X00421701Y00871963D01*
X00421659Y00871935D01*
X00421604Y00871893D01*
X00421451Y00871824D01*
X00421354Y00871810D01*
X00421257Y00871796D01*
X00421229D01*
X00421174Y00871810D01*
X00421063Y00871824D01*
X00420938Y00871866D01*
X00420786Y00871921D01*
X00420619Y00872018D01*
X00420439Y00872143D01*
X00420259Y00872323D01*
X00420245Y00872309D01*
X00420231Y00872282D01*
X00420189Y00872226D01*
X00420148Y00872143D01*
X00420078Y00872060D01*
X00420023Y00871935D01*
X00419953Y00871810D01*
X00419884Y00871672D01*
X00419815Y00871505D01*
X00419745Y00871339D01*
X00419621Y00870964D01*
X00419538Y00870534D01*
X00419524Y00870312D01*
X00419510Y00870091D01*
Y00870077D01*
Y00870035D01*
Y00869966D01*
X00419524Y00869869D01*
X00419538Y00869758D01*
X00419551Y00869633D01*
X00419579Y00869480D01*
X00419607Y00869314D01*
X00419704Y00868953D01*
X00419759Y00868759D01*
X00419843Y00868551D01*
X00419940Y00868343D01*
X00420037Y00868135D01*
X00420162Y00867927D01*
X00420300Y00867719D01*
X00420314Y00867705D01*
X00420342Y00867664D01*
X00420383Y00867608D01*
X00420453Y00867525D01*
X00420536Y00867428D01*
X00420647Y00867331D01*
X00420758Y00867220D01*
X00420883Y00867095D01*
X00421035Y00866984D01*
X00421202Y00866873D01*
X00421368Y00866776D01*
X00421548Y00866679D01*
X00421743Y00866596D01*
X00421951Y00866540D01*
X00422173Y00866499D01*
X00422394Y00866485D01*
X00422450D01*
X00422505Y00866499D01*
X00422589D01*
X00422686Y00866526D01*
X00422797Y00866554D01*
X00422935Y00866582D01*
X00423074Y00866637D01*
X00423227Y00866693D01*
X00423379Y00866776D01*
X00423545Y00866873D01*
X00423698Y00866998D01*
X00423864Y00867137D01*
X00424031Y00867289D01*
X00424197Y00867483D01*
X00424350Y00867691D01*
X00424364Y00867705D01*
X00424378Y00867733D01*
X00424419Y00867802D01*
X00424461Y00867886D01*
X00424516Y00867983D01*
X00424572Y00868093D01*
X00424641Y00868232D01*
X00424710Y00868385D01*
X00424780Y00868551D01*
X00424849Y00868732D01*
X00424960Y00869106D01*
X00425043Y00869536D01*
X00425057Y00869758D01*
X00425071Y00869980D01*
Y00869994D01*
Y00870035D01*
Y00870105D01*
X00425057Y00870188D01*
X00425043Y00870299D01*
X00425029Y00870437D01*
X00425002Y00870590D01*
X00424974Y00870742D01*
X00424891Y00871103D01*
X00424752Y00871505D01*
X00424669Y00871699D01*
X00424572Y00871907D01*
X00424447Y00872115D01*
X00424322Y00872323D01*
X00424308Y00872337D01*
X00424281Y00872379D01*
X00424239Y00872434D01*
X00424170Y00872518D01*
X00424086Y00872601D01*
X00423989Y00872698D01*
X00423878Y00872809D01*
X00423754Y00872920D01*
X00423615Y00873045D01*
X00423462Y00873142D01*
X00423296Y00873253D01*
X00423116Y00873336D01*
X00422921Y00873419D01*
X00422713Y00873475D01*
X00422505Y00873516D01*
X00422283Y00873530D01*
D02*
G37*
G36*
X00308836Y00662413D02*
X00305730D01*
X00307283Y00658599D01*
X00308836Y00662413D01*
D02*
G37*
G36*
X00297423Y00664452D02*
X00295301D01*
Y00657739D01*
X00297367D01*
X00297589Y00657753D01*
X00297797Y00657781D01*
X00298005Y00657836D01*
X00298185Y00657906D01*
X00298532Y00658086D01*
X00298685Y00658197D01*
X00298823Y00658294D01*
X00298948Y00658391D01*
X00299045Y00658502D01*
X00299142Y00658585D01*
X00299225Y00658669D01*
X00299281Y00658752D01*
X00299322Y00658807D01*
X00299350Y00658835D01*
X00299364Y00658849D01*
X00299489Y00659043D01*
X00299614Y00659237D01*
X00299711Y00659431D01*
X00299794Y00659625D01*
X00299919Y00660014D01*
X00300002Y00660360D01*
X00300044Y00660513D01*
X00300058Y00660666D01*
X00300071Y00660790D01*
X00300085Y00660901D01*
X00300099Y00660985D01*
Y00661054D01*
Y00661096D01*
Y00661109D01*
X00300085Y00661345D01*
X00300071Y00661567D01*
X00299988Y00661997D01*
X00299877Y00662385D01*
X00299808Y00662552D01*
X00299739Y00662704D01*
X00299669Y00662857D01*
X00299600Y00662982D01*
X00299544Y00663093D01*
X00299489Y00663190D01*
X00299447Y00663259D01*
X00299406Y00663314D01*
X00299392Y00663342D01*
X00299378Y00663356D01*
X00299225Y00663550D01*
X00299059Y00663717D01*
X00298893Y00663869D01*
X00298726Y00663994D01*
X00298560Y00664091D01*
X00298393Y00664188D01*
X00298227Y00664258D01*
X00298074Y00664313D01*
X00297936Y00664355D01*
X00297797Y00664396D01*
X00297672Y00664424D01*
X00297575Y00664438D01*
X00297492D01*
X00297423Y00664452D01*
D02*
G37*
%LPD*%
D12*
X00345500Y00845000D02*
Y00895001D01*
Y00845000D02*
X00490500D01*
Y00895001D01*
X00345500D02*
X00490500D01*
X00348775Y00621088D02*
Y00703588D01*
X00283775Y00621088D02*
X00348775D01*
X00283775D02*
Y00703588D01*
X00348775D01*
M02*
