G04*
G04 #@! TF.GenerationSoftware,Altium Limited,Altium Designer,20.0.14 (345)*
G04*
G04 Layer_Color=255*
%FSAX44Y44*%
%MOMM*%
G71*
G01*
G75*
%ADD13R,1.2500X1.0000*%
%ADD14R,1.0000X1.2500*%
%ADD34P,1.7318X8X202.5*%
%ADD35C,1.6000*%
%ADD36C,2.0000*%
%ADD37R,2.0000X2.0000*%
%ADD38R,2.0000X2.0000*%
%ADD40R,1.4000X0.4000*%
%ADD41R,1.6000X2.1000*%
%ADD42R,1.9000X1.8000*%
%ADD43R,1.9000X1.7500*%
%ADD44R,3.3000X1.5000*%
%ADD45R,1.0000X1.5000*%
%ADD46R,2.0000X4.3000*%
%ADD47R,1.7000X2.5000*%
D13*
X00442696Y00853192D02*
D03*
Y00833192D02*
D03*
X00408027Y00833192D02*
D03*
Y00853193D02*
D03*
X00373239Y00833192D02*
D03*
Y00853192D02*
D03*
D14*
X00322000Y00606000D02*
D03*
X00302000D02*
D03*
X00487000Y00788000D02*
D03*
X00467000D02*
D03*
X00487000Y00702012D02*
D03*
X00467000D02*
D03*
X00487000Y00760718D02*
D03*
X00467000D02*
D03*
X00487000Y00732689D02*
D03*
X00467000D02*
D03*
X00290525Y00788000D02*
D03*
X00310525D02*
D03*
D34*
X00353000Y00551000D02*
D03*
D35*
X00318000D02*
D03*
D36*
X00413200Y00617000D02*
D03*
X00464000D02*
D03*
X00438600D02*
D03*
X00516000Y00872400D02*
D03*
Y00821600D02*
D03*
Y00745400D02*
D03*
Y00720000D02*
D03*
Y00770800D02*
D03*
Y00796200D02*
D03*
Y00847000D02*
D03*
D37*
X00489400Y00617000D02*
D03*
D38*
X00516000Y00694600D02*
D03*
D40*
X00334293Y00886589D02*
D03*
Y00893089D02*
D03*
Y00899589D02*
D03*
Y00906089D02*
D03*
Y00912589D02*
D03*
D41*
X00333293Y00868589D02*
D03*
Y00930589D02*
D03*
D42*
X00307793Y00859589D02*
D03*
Y00939589D02*
D03*
D43*
Y00888339D02*
D03*
Y00910839D02*
D03*
D44*
X00316275Y00630588D02*
D03*
D45*
X00339275Y00693588D02*
D03*
X00293275D02*
D03*
X00316275D02*
D03*
D46*
X00364024Y00740907D02*
D03*
X00296024D02*
D03*
D47*
X00294025Y00823775D02*
D03*
X00334025D02*
D03*
M02*
