M48
;Layer_Color=9474304
;FILE_FORMAT=4:4
METRIC,LZ
;TYPE=PLATED
T1F00S00C0.3000
T2F00S00C0.8000
T3F00S00C1.1000
T4F00S00C3.0000
%
T01
X00456184Y00584708
X00419354Y00647352
X0041275Y0067056
X00404114Y00676148
X00400431Y00700024
X00408946Y00748538
X00439928Y00746712
X00441706Y00764032
X00461518Y00772668
Y0074295
X00475788Y00748538
X00391668Y00710438
X00316275Y0070491
X00311404Y00720852
T02
X00318Y00551
X00353
T03
X004132Y00617
X004386
X00464
X004894
X00516Y006946
Y0072
Y007454
Y007708
Y007962
Y008216
Y00847
Y008724
T04
X00286Y00512
X00525Y00935
M30
