G04*
G04 #@! TF.GenerationSoftware,Altium Limited,Altium Designer,20.0.14 (345)*
G04*
G04 Layer_Color=16711935*
%FSAX44Y44*%
%MOMM*%
G71*
G01*
G75*
%ADD20R,1.3700X1.1200*%
%ADD21R,1.1200X1.3700*%
%ADD27C,0.1200*%
%ADD28P,1.8617X8X202.5*%
%ADD29C,1.7200*%
%ADD30C,2.1200*%
%ADD31R,2.1200X2.1200*%
%ADD32R,2.1200X2.1200*%
%ADD33C,0.7200*%
%ADD48R,1.5200X0.5200*%
%ADD49R,1.7200X2.2200*%
%ADD50R,2.0200X1.9200*%
%ADD51R,2.0200X1.8700*%
%ADD52R,3.4200X1.6200*%
%ADD53R,1.1200X1.6200*%
%ADD54R,2.1200X4.4200*%
%ADD55R,1.8200X2.6200*%
D20*
X00442696Y00853192D02*
D03*
Y00833192D02*
D03*
X00408027Y00833192D02*
D03*
Y00853193D02*
D03*
X00373239Y00833192D02*
D03*
Y00853192D02*
D03*
D21*
X00322000Y00606000D02*
D03*
X00302000D02*
D03*
X00487000Y00788000D02*
D03*
X00467000D02*
D03*
X00487000Y00702012D02*
D03*
X00467000D02*
D03*
X00487000Y00760718D02*
D03*
X00467000D02*
D03*
X00487000Y00732689D02*
D03*
X00467000D02*
D03*
X00290525Y00788000D02*
D03*
X00310525D02*
D03*
D27*
X00286000Y00512000D02*
D03*
X00525000Y00935000D02*
D03*
D28*
X00353000Y00551000D02*
D03*
D29*
X00318000D02*
D03*
D30*
X00413200Y00617000D02*
D03*
X00464000D02*
D03*
X00438600D02*
D03*
X00516000Y00872400D02*
D03*
Y00821600D02*
D03*
Y00745400D02*
D03*
Y00720000D02*
D03*
Y00770800D02*
D03*
Y00796200D02*
D03*
Y00847000D02*
D03*
D31*
X00489400Y00617000D02*
D03*
D32*
X00516000Y00694600D02*
D03*
D33*
X00404114Y00676148D02*
D03*
X00311404Y00720852D02*
D03*
X00391668Y00710438D02*
D03*
X00461518Y00772668D02*
D03*
Y00742950D02*
D03*
X00439928Y00746712D02*
D03*
X00316275Y00704910D02*
D03*
X00408946Y00748538D02*
D03*
X00456184Y00584708D02*
D03*
X00400431Y00700024D02*
D03*
X00412750Y00670560D02*
D03*
X00441706Y00764032D02*
D03*
X00475788Y00748538D02*
D03*
X00419354Y00647352D02*
D03*
D48*
X00334293Y00886589D02*
D03*
Y00893089D02*
D03*
Y00899589D02*
D03*
Y00906089D02*
D03*
Y00912589D02*
D03*
D49*
X00333293Y00868589D02*
D03*
Y00930589D02*
D03*
D50*
X00307793Y00859589D02*
D03*
Y00939589D02*
D03*
D51*
Y00888339D02*
D03*
Y00910839D02*
D03*
D52*
X00316275Y00630588D02*
D03*
D53*
X00339275Y00693588D02*
D03*
X00293275D02*
D03*
X00316275D02*
D03*
D54*
X00364024Y00740907D02*
D03*
X00296024D02*
D03*
D55*
X00294025Y00823775D02*
D03*
X00334025D02*
D03*
M02*
