G04*
G04 #@! TF.GenerationSoftware,Altium Limited,Altium Designer,20.0.14 (345)*
G04*
G04 Layer_Color=8388736*
%FSAX44Y44*%
%MOMM*%
G71*
G01*
G75*
%ADD20R,1.3700X1.1200*%
%ADD21R,1.1200X1.3700*%
%ADD22R,1.7200X1.1200*%
%ADD23R,2.2200X1.5200*%
%ADD24R,5.1200X0.9200*%
%ADD25O,0.4200X1.5200*%
%ADD26O,1.5200X0.4200*%
%ADD27C,0.1200*%
%ADD28P,1.8617X8X202.5*%
%ADD29C,1.7200*%
%ADD30C,2.1200*%
%ADD31R,2.1200X2.1200*%
%ADD32R,2.1200X2.1200*%
%ADD33C,0.7200*%
D20*
X00389000Y00535000D02*
D03*
Y00515000D02*
D03*
X00518445Y00631300D02*
D03*
Y00611300D02*
D03*
X00301000Y00777965D02*
D03*
Y00797965D02*
D03*
Y00643250D02*
D03*
Y00663250D02*
D03*
X00532000Y00540000D02*
D03*
Y00520000D02*
D03*
D21*
X00425439Y00810011D02*
D03*
X00405439D02*
D03*
X00409263Y00647111D02*
D03*
X00429263D02*
D03*
X00495100Y00582300D02*
D03*
X00475100D02*
D03*
X00440542Y00916500D02*
D03*
X00460542D02*
D03*
X00390289D02*
D03*
X00370289D02*
D03*
D22*
X00301000Y00850000D02*
D03*
Y00820000D02*
D03*
Y00734910D02*
D03*
Y00704910D02*
D03*
D23*
X00416000Y00553000D02*
D03*
Y00508000D02*
D03*
X00506000Y00553000D02*
D03*
Y00508000D02*
D03*
D24*
X00463000Y00870000D02*
D03*
X00373000D02*
D03*
D25*
X00381326Y00771212D02*
D03*
X00386325D02*
D03*
X00391326D02*
D03*
X00396325D02*
D03*
X00401326D02*
D03*
X00406325D02*
D03*
X00411326D02*
D03*
X00416326D02*
D03*
X00421325D02*
D03*
X00426326D02*
D03*
X00431325D02*
D03*
X00436326D02*
D03*
Y00687212D02*
D03*
X00431325D02*
D03*
X00426326D02*
D03*
X00421325D02*
D03*
X00416326D02*
D03*
X00411326D02*
D03*
X00406325D02*
D03*
X00401326D02*
D03*
X00396325D02*
D03*
X00391326D02*
D03*
X00386325D02*
D03*
X00381326D02*
D03*
D26*
X00450826Y00756712D02*
D03*
Y00751712D02*
D03*
Y00746712D02*
D03*
Y00741712D02*
D03*
Y00736712D02*
D03*
Y00731712D02*
D03*
Y00726712D02*
D03*
Y00721712D02*
D03*
Y00716712D02*
D03*
Y00711712D02*
D03*
Y00706712D02*
D03*
Y00701712D02*
D03*
X00366826D02*
D03*
Y00706712D02*
D03*
Y00711712D02*
D03*
Y00716712D02*
D03*
Y00721712D02*
D03*
Y00726712D02*
D03*
Y00731712D02*
D03*
Y00736712D02*
D03*
Y00741712D02*
D03*
Y00746712D02*
D03*
Y00751712D02*
D03*
Y00756712D02*
D03*
D27*
X00286000Y00512000D02*
D03*
X00525000Y00935000D02*
D03*
D28*
X00353000Y00551000D02*
D03*
D29*
X00318000D02*
D03*
D30*
X00413200Y00617000D02*
D03*
X00464000D02*
D03*
X00438600D02*
D03*
X00516000Y00872400D02*
D03*
Y00821600D02*
D03*
Y00745400D02*
D03*
Y00720000D02*
D03*
Y00770800D02*
D03*
Y00796200D02*
D03*
Y00847000D02*
D03*
D31*
X00489400Y00617000D02*
D03*
D32*
X00516000Y00694600D02*
D03*
D33*
X00404114Y00676148D02*
D03*
X00311404Y00720852D02*
D03*
X00391668Y00710438D02*
D03*
X00461518Y00772668D02*
D03*
Y00742950D02*
D03*
X00439928Y00746712D02*
D03*
X00316275Y00704910D02*
D03*
X00408946Y00748538D02*
D03*
X00456184Y00584708D02*
D03*
X00400431Y00700024D02*
D03*
X00412750Y00670560D02*
D03*
X00441706Y00764032D02*
D03*
X00475788Y00748538D02*
D03*
X00419354Y00647352D02*
D03*
M02*
