G04*
G04 #@! TF.GenerationSoftware,Altium Limited,Altium Designer,20.0.14 (345)*
G04*
G04 Layer_Color=32896*
%FSAX44Y44*%
%MOMM*%
G71*
G01*
G75*
%ADD10C,0.2500*%
%ADD11C,0.2000*%
%ADD12C,0.2540*%
%ADD57C,0.5000*%
D10*
X00410500Y00784500D02*
X00445500D01*
X00410500D02*
Y00849500D01*
X00445500D01*
Y00784500D02*
Y00849500D01*
D11*
X00455250Y00869000D02*
Y00903000D01*
X00438750Y00869000D02*
Y00903000D01*
Y00869000D02*
X00455250D01*
X00438750Y00903000D02*
X00455250D01*
X00365251Y00920500D02*
Y00942000D01*
Y00920500D02*
X00391250D01*
X00426250D02*
X00452250D01*
Y00942000D01*
X00497000Y00854750D02*
X00531000D01*
X00497000Y00871251D02*
X00531000D01*
X00497000Y00854750D02*
Y00871251D01*
X00531000Y00854750D02*
Y00871251D01*
X00413250Y00869000D02*
Y00903000D01*
X00396750Y00869000D02*
Y00903000D01*
Y00869000D02*
X00413250D01*
X00396750Y00903000D02*
X00413250D01*
X00434250Y00869000D02*
Y00903000D01*
X00417750Y00869000D02*
Y00903000D01*
Y00869000D02*
X00434250D01*
X00417750Y00903000D02*
X00434250D01*
X00479999Y00739796D02*
X00513999D01*
X00479999Y00756296D02*
X00513999D01*
X00479999Y00739796D02*
Y00756296D01*
X00513999Y00739796D02*
Y00756296D01*
X00480000Y00761750D02*
X00514000D01*
X00480000Y00778250D02*
X00514000D01*
X00480000Y00761750D02*
Y00778250D01*
X00514000Y00761750D02*
Y00778250D01*
X00479999Y00695642D02*
X00513999D01*
X00479999Y00712141D02*
X00513999D01*
X00479999Y00695642D02*
Y00712141D01*
X00513999Y00695642D02*
Y00712141D01*
X00480000Y00718000D02*
X00514000D01*
X00480000Y00734500D02*
X00514000D01*
X00480000Y00718000D02*
Y00734500D01*
X00514000Y00718000D02*
Y00734500D01*
X00347390Y00815750D02*
X00363890D01*
X00347390Y00849750D02*
X00363890D01*
Y00815750D02*
Y00849750D01*
X00347390Y00815750D02*
Y00849750D01*
X00277146Y00842750D02*
X00324146D01*
Y00817000D02*
Y00909000D01*
X00277146D02*
X00324146D01*
X00277146Y00817000D02*
Y00909000D01*
Y00817000D02*
X00324146D01*
X00331000Y00873500D02*
X00392500D01*
X00331000D02*
Y00902500D01*
X00392500D01*
Y00873500D02*
Y00902500D01*
X00354000Y00873500D02*
Y00902500D01*
D12*
X00410000Y00848000D02*
Y00863235D01*
X00402383D01*
X00399843Y00860696D01*
Y00855618D01*
X00402383Y00853078D01*
X00410000D01*
X00404922D02*
X00399843Y00848000D01*
X00394765Y00860696D02*
X00392226Y00863235D01*
X00387147D01*
X00384608Y00860696D01*
Y00858157D01*
X00387147Y00855618D01*
X00389687D01*
X00387147D01*
X00384608Y00853078D01*
Y00850539D01*
X00387147Y00848000D01*
X00392226D01*
X00394765Y00850539D01*
X00417853Y00830725D02*
X00433088D01*
Y00823107D01*
X00430549Y00820568D01*
X00420392D01*
X00417853Y00823107D01*
Y00830725D01*
X00433088Y00815490D02*
X00422931D01*
X00417853Y00810411D01*
X00422931Y00805333D01*
X00433088D01*
X00425471D01*
Y00815490D01*
X00433088Y00800255D02*
Y00795176D01*
Y00797716D01*
X00417853D01*
X00420392Y00800255D01*
X00527157Y00765304D02*
X00524618Y00762765D01*
X00519539D01*
X00517000Y00765304D01*
Y00775461D01*
X00519539Y00778000D01*
X00524618D01*
X00527157Y00775461D01*
X00532235D02*
X00534774Y00778000D01*
X00539853D01*
X00542392Y00775461D01*
Y00765304D01*
X00539853Y00762765D01*
X00534774D01*
X00532235Y00765304D01*
Y00767843D01*
X00534774Y00770383D01*
X00542392D01*
X00476461Y00856922D02*
X00473922Y00854382D01*
X00468843D01*
X00466304Y00856922D01*
Y00867078D01*
X00468843Y00869617D01*
X00473922D01*
X00476461Y00867078D01*
X00481539Y00856922D02*
X00484078Y00854382D01*
X00489157D01*
X00491696Y00856922D01*
Y00859461D01*
X00489157Y00862000D01*
X00486618D01*
X00489157D01*
X00491696Y00864539D01*
Y00867078D01*
X00489157Y00869617D01*
X00484078D01*
X00481539Y00867078D01*
X00352150Y00871183D02*
X00354689Y00873723D01*
X00359767D01*
X00362306Y00871183D01*
Y00861027D01*
X00359767Y00858488D01*
X00354689D01*
X00352150Y00861027D01*
X00336915Y00858488D02*
X00347071D01*
X00336915Y00868644D01*
Y00871183D01*
X00339454Y00873723D01*
X00344532D01*
X00347071Y00871183D01*
X00303341Y00863407D02*
X00305881Y00860867D01*
Y00855789D01*
X00303341Y00853250D01*
X00293185D01*
X00290646Y00855789D01*
Y00860867D01*
X00293185Y00863407D01*
X00290646Y00868485D02*
Y00873563D01*
Y00871024D01*
X00305881D01*
X00303341Y00868485D01*
X00360000Y00944735D02*
X00349843Y00929500D01*
Y00944735D02*
X00360000Y00929500D01*
X00334608D02*
X00344765D01*
X00334608Y00939656D01*
Y00942196D01*
X00337147Y00944735D01*
X00342226D01*
X00344765Y00942196D01*
X00326235Y00870250D02*
X00316078D01*
X00311000Y00875328D01*
X00316078Y00880407D01*
X00326235D01*
Y00885485D02*
X00311000D01*
Y00893103D01*
X00313539Y00895642D01*
X00323696D01*
X00326235Y00893103D01*
Y00885485D01*
X00311000Y00900720D02*
Y00905798D01*
Y00903259D01*
X00326235D01*
X00323696Y00900720D01*
X00471000Y00846000D02*
Y00861235D01*
X00463382D01*
X00460843Y00858696D01*
Y00853618D01*
X00463382Y00851079D01*
X00471000D01*
X00465921D02*
X00460843Y00846000D01*
X00445608Y00861235D02*
X00455765D01*
Y00853618D01*
X00450686Y00856157D01*
X00448147D01*
X00445608Y00853618D01*
Y00848539D01*
X00448147Y00846000D01*
X00453226D01*
X00455765Y00848539D01*
X00439750Y00848000D02*
Y00863235D01*
X00432132D01*
X00429593Y00860696D01*
Y00855618D01*
X00432132Y00853078D01*
X00439750D01*
X00434672D02*
X00429593Y00848000D01*
X00416897D02*
Y00863235D01*
X00424515Y00855618D01*
X00414358D01*
X00527156Y00698196D02*
X00524617Y00695657D01*
X00519539D01*
X00517000Y00698196D01*
Y00708353D01*
X00519539Y00710892D01*
X00524617D01*
X00527156Y00708353D01*
X00532234Y00710892D02*
X00537313D01*
X00534774D01*
Y00695657D01*
X00532234Y00698196D01*
X00555087Y00710892D02*
X00544930D01*
X00555087Y00700735D01*
Y00698196D01*
X00552548Y00695657D01*
X00547470D01*
X00544930Y00698196D01*
X00527156Y00720554D02*
X00524617Y00718015D01*
X00519539D01*
X00517000Y00720554D01*
Y00730711D01*
X00519539Y00733250D01*
X00524617D01*
X00527156Y00730711D01*
X00532234Y00733250D02*
X00537313D01*
X00534774D01*
Y00718015D01*
X00532234Y00720554D01*
X00544930Y00733250D02*
X00550009D01*
X00547470D01*
Y00718015D01*
X00544930Y00720554D01*
X00527156Y00742350D02*
X00524617Y00739811D01*
X00519539D01*
X00517000Y00742350D01*
Y00752506D01*
X00519539Y00755046D01*
X00524617D01*
X00527156Y00752506D01*
X00532234Y00755046D02*
X00537313D01*
X00534774D01*
Y00739811D01*
X00532234Y00742350D01*
X00544930D02*
X00547470Y00739811D01*
X00552548D01*
X00555087Y00742350D01*
Y00752506D01*
X00552548Y00755046D01*
X00547470D01*
X00544930Y00752506D01*
Y00742350D01*
D57*
X00360250Y00922000D02*
D03*
M02*
