M48
;Layer_Color=9474304
;FILE_FORMAT=4:4
METRIC,LZ
;TYPE=PLATED
T1F00S00C0.2000
T2F00S00C0.8000
T3F00S00C1.1000
T4F00S00C3.0000
%
T01
X0040725Y005675
X0044725Y006015
X00445Y0064825
X0042375Y0064225
X0044675Y0068525
X0048225Y00681
X00437Y0073
X0042825Y007435
X00409Y00732
X0040725Y0072
X0044375Y0077325
X003955Y00755
Y00728
X003955Y00712
X003725Y008215
X00447Y00826
X00438396Y0084275
X004925Y0084025
X00513Y00815
T02
X00501Y009015
Y009365
T03
X0042Y00508
X004454
X00543Y006392
Y006646
Y0069
Y007154
Y007408
Y007662
Y007916
X003946Y00508
X003692
X00543Y00817
T04
X0053Y00516
X0029
Y00956
M30
