G04*
G04 #@! TF.GenerationSoftware,Altium Limited,Altium Designer,20.0.14 (345)*
G04*
G04 Layer_Color=32896*
%FSAX44Y44*%
%MOMM*%
G71*
G01*
G75*
%ADD10C,0.2000*%
%ADD11C,0.2500*%
%ADD12C,0.2540*%
%ADD56C,0.5000*%
D10*
X00321793Y00856089D02*
X00343293D01*
Y00882089D01*
Y00917089D02*
Y00943089D01*
X00321793D02*
X00343293D01*
X00295000Y00614250D02*
X00329000D01*
X00295000Y00597750D02*
X00329000D01*
Y00614250D01*
X00295000Y00597750D02*
Y00614250D01*
X00434446Y00860191D02*
X00450946D01*
X00434446Y00826191D02*
X00450946D01*
X00434446D02*
Y00860191D01*
X00450946Y00826191D02*
Y00860191D01*
X00416277Y00826192D02*
Y00860192D01*
X00399777Y00826192D02*
Y00860192D01*
Y00826192D02*
X00416277D01*
X00399777Y00860192D02*
X00416277D01*
X00381490Y00826192D02*
Y00860192D01*
X00364989Y00826192D02*
Y00860192D01*
Y00826192D02*
X00381490D01*
X00364989Y00860192D02*
X00381490D01*
X00460000Y00796250D02*
X00494000D01*
X00460000Y00779750D02*
X00494000D01*
Y00796250D01*
X00460000Y00779750D02*
Y00796250D01*
X00460000Y00710262D02*
X00493999D01*
X00460000Y00693762D02*
X00493999D01*
Y00710262D01*
X00460000Y00693762D02*
Y00710262D01*
X00460000Y00768968D02*
X00494000D01*
X00460000Y00752468D02*
X00494000D01*
Y00768968D01*
X00460000Y00752468D02*
Y00768968D01*
X00460000Y00740939D02*
X00493999D01*
X00460000Y00724439D02*
X00493999D01*
Y00740939D01*
X00460000Y00724439D02*
Y00740939D01*
X00283525Y00779750D02*
Y00796250D01*
X00317525Y00779750D02*
Y00796250D01*
X00283525Y00779750D02*
X00317525D01*
X00283525Y00796250D02*
X00317525D01*
X00350275Y00717407D02*
Y00764407D01*
X00284024D02*
X00376025D01*
X00284024Y00717407D02*
Y00764407D01*
Y00717407D02*
X00376025D01*
Y00764407D01*
X00283525Y00838276D02*
X00345025D01*
Y00809276D02*
Y00838276D01*
X00283525Y00809276D02*
X00345025D01*
X00283525D02*
Y00838276D01*
X00322025Y00809276D02*
Y00838276D01*
D11*
X00283775Y00643588D02*
Y00678588D01*
X00348775D01*
Y00643588D02*
Y00678588D01*
X00283775Y00643588D02*
X00348775D01*
D12*
X00276382Y00917696D02*
X00291618Y00907539D01*
X00276382D02*
X00291618Y00917696D01*
Y00892304D02*
Y00902461D01*
X00281461Y00892304D01*
X00278922D01*
X00276382Y00894843D01*
Y00899922D01*
X00278922Y00902461D01*
X00349539Y00612079D02*
X00352079Y00614618D01*
X00357157D01*
X00359696Y00612079D01*
Y00601922D01*
X00357157Y00599383D01*
X00352079D01*
X00349539Y00601922D01*
X00344461Y00612079D02*
X00341922Y00614618D01*
X00336843D01*
X00334304Y00612079D01*
Y00609539D01*
X00336843Y00607000D01*
X00339383D01*
X00336843D01*
X00334304Y00604461D01*
Y00601922D01*
X00336843Y00599383D01*
X00341922D01*
X00344461Y00601922D01*
X00461310Y00868822D02*
Y00884057D01*
X00453693D01*
X00451153Y00881518D01*
Y00876439D01*
X00453693Y00873900D01*
X00461310D01*
X00456232D02*
X00451153Y00868822D01*
X00435918Y00884057D02*
X00446075D01*
Y00876439D01*
X00440997Y00878979D01*
X00438457D01*
X00435918Y00876439D01*
Y00871361D01*
X00438457Y00868822D01*
X00443536D01*
X00446075Y00871361D01*
X00419607Y00868851D02*
Y00884086D01*
X00411989D01*
X00409450Y00881547D01*
Y00876469D01*
X00411989Y00873930D01*
X00419607D01*
X00414528D02*
X00409450Y00868851D01*
X00404372Y00881547D02*
X00401832Y00884086D01*
X00396754D01*
X00394215Y00881547D01*
Y00879008D01*
X00396754Y00876469D01*
X00399293D01*
X00396754D01*
X00394215Y00873930D01*
Y00871390D01*
X00396754Y00868851D01*
X00401832D01*
X00404372Y00871390D01*
X00384696Y00868382D02*
Y00883617D01*
X00377078D01*
X00374539Y00881078D01*
Y00876000D01*
X00377078Y00873461D01*
X00384696D01*
X00379618D02*
X00374539Y00868382D01*
X00361843D02*
Y00883617D01*
X00369461Y00876000D01*
X00359304D01*
X00332049Y00669706D02*
Y00654471D01*
X00324432D01*
X00321893Y00657010D01*
Y00667167D01*
X00324432Y00669706D01*
X00332049D01*
X00316814Y00654471D02*
Y00664627D01*
X00311736Y00669706D01*
X00306658Y00664627D01*
Y00654471D01*
Y00662088D01*
X00316814D01*
X00301579Y00654471D02*
X00296501D01*
X00299040D01*
Y00669706D01*
X00301579Y00667167D01*
X00444539Y00706090D02*
X00447078Y00708629D01*
X00452156D01*
X00454696Y00706090D01*
Y00695934D01*
X00452156Y00693394D01*
X00447078D01*
X00444539Y00695934D01*
X00439460D02*
X00436921Y00693394D01*
X00431843D01*
X00429304Y00695934D01*
Y00706090D01*
X00431843Y00708629D01*
X00436921D01*
X00439460Y00706090D01*
Y00703551D01*
X00436921Y00701012D01*
X00429304D01*
X00305874Y00817526D02*
X00308413Y00820065D01*
X00313491D01*
X00316031Y00817526D01*
Y00807369D01*
X00313491Y00804830D01*
X00308413D01*
X00305874Y00807369D01*
X00290639Y00804830D02*
X00300796D01*
X00290639Y00814987D01*
Y00817526D01*
X00293178Y00820065D01*
X00298256D01*
X00300796Y00817526D01*
X00330024Y00747985D02*
X00332564Y00750524D01*
X00337642D01*
X00340181Y00747985D01*
Y00737828D01*
X00337642Y00735289D01*
X00332564D01*
X00330024Y00737828D01*
X00324946Y00735289D02*
X00319868D01*
X00322407D01*
Y00750524D01*
X00324946Y00747985D01*
X00329799Y00860393D02*
Y00850236D01*
X00324721Y00845158D01*
X00319642Y00850236D01*
Y00860393D01*
X00314564D02*
Y00845158D01*
X00306946D01*
X00304407Y00847697D01*
Y00857854D01*
X00306946Y00860393D01*
X00314564D01*
X00299329Y00845158D02*
X00294250D01*
X00296790D01*
Y00860393D01*
X00299329Y00857854D01*
X00444887Y00764796D02*
X00447426Y00767335D01*
X00452505D01*
X00455044Y00764796D01*
Y00754639D01*
X00452505Y00752100D01*
X00447426D01*
X00444887Y00754639D01*
X00439809Y00752100D02*
X00434730D01*
X00437270D01*
Y00767335D01*
X00439809Y00764796D01*
X00416956Y00752100D02*
X00427113D01*
X00416956Y00762257D01*
Y00764796D01*
X00419495Y00767335D01*
X00424574D01*
X00427113Y00764796D01*
X00445348Y00737767D02*
X00447887Y00740306D01*
X00452965D01*
X00455504Y00737767D01*
Y00727610D01*
X00452965Y00725071D01*
X00447887D01*
X00445348Y00727610D01*
X00440269Y00725071D02*
X00435191D01*
X00437730D01*
Y00740306D01*
X00440269Y00737767D01*
X00427574Y00725071D02*
X00422495D01*
X00425034D01*
Y00740306D01*
X00427574Y00737767D01*
X00443887Y00795078D02*
X00446426Y00797617D01*
X00451505D01*
X00454044Y00795078D01*
Y00784922D01*
X00451505Y00782383D01*
X00446426D01*
X00443887Y00784922D01*
X00438809Y00782383D02*
X00433730D01*
X00436270D01*
Y00797617D01*
X00438809Y00795078D01*
X00426113D02*
X00423574Y00797617D01*
X00418495D01*
X00415956Y00795078D01*
Y00784922D01*
X00418495Y00782383D01*
X00423574D01*
X00426113Y00784922D01*
Y00795078D01*
D56*
X00341793Y00851089D02*
D03*
M02*
