G04*
G04 #@! TF.GenerationSoftware,Altium Limited,Altium Designer,20.0.14 (345)*
G04*
G04 Layer_Color=65535*
%FSAX44Y44*%
%MOMM*%
G71*
G01*
G75*
%ADD10C,0.2500*%
%ADD11C,0.2000*%
%ADD12C,0.2540*%
G36*
X00541000Y00924000D02*
X00461000D01*
X00463000Y00932000D01*
X00466500Y00939500D01*
X00471000Y00945250D01*
X00476000Y00950250D01*
X00483250Y00954750D01*
X00490000Y00957500D01*
X00497750Y00959000D01*
X00505250Y00958750D01*
X00512250Y00957500D01*
X00519500Y00954500D01*
X00525000Y00951000D01*
X00530500Y00946000D01*
X00534750Y00940250D01*
X00539000Y00931250D01*
X00541000Y00924000D01*
D02*
G37*
D10*
X00368250Y00765000D02*
G03*
X00368250Y00765000I-00001250J00000000D01*
G01*
D11*
X00541000Y00919000D02*
G03*
X00541000Y00919000I-00040000J00000000D01*
G01*
X00379001Y00701000D02*
Y00761000D01*
X00439000Y00701000D02*
Y00761000D01*
X00379001D02*
X00439000D01*
X00379001Y00701000D02*
X00439000D01*
X00383000Y00634750D02*
Y00651250D01*
X00417000Y00634750D02*
Y00651250D01*
X00383000D02*
X00417000D01*
X00383000Y00634750D02*
X00417000D01*
X00439750Y00528250D02*
Y00562250D01*
X00456250Y00528250D02*
Y00562250D01*
X00439750Y00528250D02*
X00456250D01*
X00439750Y00562250D02*
X00456250D01*
X00331000Y00718000D02*
X00347499D01*
X00331000Y00752000D02*
X00347499D01*
X00331000Y00718000D02*
Y00752000D01*
X00347499Y00718000D02*
Y00752000D01*
X00386500Y00877500D02*
Y00921500D01*
X00406500Y00877500D02*
Y00921500D01*
X00386500Y00877500D02*
X00406500D01*
X00386500Y00921500D02*
X00406500D01*
X00386500Y00892000D02*
X00406500D01*
X00388250Y00838500D02*
X00404750D01*
X00388250Y00872500D02*
X00404750D01*
X00388250Y00838500D02*
Y00872500D01*
X00404750Y00838500D02*
Y00872500D01*
X00362325Y00838500D02*
X00378825D01*
X00362325Y00872500D02*
X00378825D01*
X00362325Y00838500D02*
Y00872500D01*
X00378825Y00838500D02*
Y00872500D01*
X00360574Y00877499D02*
Y00921500D01*
X00380574Y00877499D02*
Y00921500D01*
X00360574Y00877499D02*
X00380574D01*
X00360574Y00921500D02*
X00380574D01*
X00360574Y00892000D02*
X00380574D01*
X00300000Y00586000D02*
Y00606000D01*
X00315000Y00626001D02*
X00375000D01*
X00390000Y00586000D02*
Y00606000D01*
X00315000Y00566000D02*
X00375000D01*
X00432700Y00514350D02*
X00439050Y00520700D01*
X00451750D01*
X00458100Y00514350D01*
Y00501650D02*
Y00514350D01*
X00451750Y00495300D02*
X00458100Y00501650D01*
X00439050Y00495300D02*
X00451750D01*
X00432700Y00501650D02*
X00439050Y00495300D01*
X00407300Y00514350D02*
X00413650Y00520700D01*
X00426350D01*
X00432700Y00514350D01*
Y00501650D02*
Y00514350D01*
X00426350Y00495300D02*
X00432700Y00501650D01*
X00413650Y00495300D02*
X00426350D01*
X00407300Y00501650D02*
X00413650Y00495300D01*
X00356500D02*
X00381900D01*
Y00501650D02*
X00388250Y00495300D01*
X00400950D01*
X00407300Y00501650D01*
Y00514350D01*
X00400950Y00520700D02*
X00407300Y00514350D01*
X00388250Y00520700D02*
X00400950D01*
X00381900Y00514350D02*
X00388250Y00520700D01*
X00356500Y00495300D02*
Y00520700D01*
X00381900Y00495300D02*
Y00520700D01*
X00356500D02*
X00381900D01*
X00367500Y00538250D02*
Y00554750D01*
X00401500Y00538250D02*
Y00554750D01*
X00367500D02*
X00401500D01*
X00367500Y00538250D02*
X00401500D01*
X00455750Y00567750D02*
Y00584250D01*
X00421750Y00567750D02*
Y00584250D01*
Y00567750D02*
X00455750D01*
X00421750Y00584250D02*
X00455750D01*
X00272000Y00658250D02*
X00306000D01*
X00272000Y00641750D02*
X00306000D01*
X00272000D02*
Y00658250D01*
X00306000Y00641750D02*
Y00658250D01*
X00272000Y00829249D02*
X00306000D01*
X00272000Y00812750D02*
X00306000D01*
X00272000D02*
Y00829249D01*
X00306000Y00812750D02*
Y00829249D01*
X00305000Y00800000D02*
X00322000D01*
Y00672000D02*
Y00800000D01*
X00305000Y00672000D02*
X00322000D01*
X00272000Y00800000D02*
X00289000D01*
X00272000Y00672000D02*
Y00800000D01*
Y00672000D02*
X00289000D01*
X00283250Y00579000D02*
Y00613000D01*
X00266750Y00579000D02*
Y00613000D01*
X00283250D01*
X00266750Y00579000D02*
X00283250D01*
X00549350Y00804300D02*
X00555700Y00810650D01*
Y00823350D01*
X00549350Y00829700D02*
X00555700Y00823350D01*
X00530300D02*
X00536650Y00829700D01*
X00530300Y00810650D02*
Y00823350D01*
Y00810650D02*
X00536650Y00804300D01*
Y00829700D02*
X00549350D01*
Y00753500D02*
X00555700Y00759850D01*
Y00772550D01*
X00549350Y00778900D02*
X00555700Y00772550D01*
X00530300D02*
X00536650Y00778900D01*
X00530300Y00759850D02*
Y00772550D01*
Y00759850D02*
X00536650Y00753500D01*
Y00778900D02*
X00549350D01*
X00530300Y00626500D02*
Y00651900D01*
X00555700D01*
X00530300Y00626500D02*
X00555700D01*
X00530300Y00658250D02*
X00536650Y00651900D01*
X00530300Y00658250D02*
Y00670950D01*
X00536650Y00677300D01*
X00549350D01*
X00555700Y00670950D01*
Y00658250D02*
Y00670950D01*
X00549350Y00651900D02*
X00555700Y00658250D01*
Y00626500D02*
Y00651900D01*
X00549350Y00677300D02*
X00555700Y00683650D01*
Y00696350D01*
X00549350Y00702700D02*
X00555700Y00696350D01*
X00536650Y00702700D02*
X00549350D01*
X00530300Y00696350D02*
X00536650Y00702700D01*
X00530300Y00683650D02*
Y00696350D01*
Y00683650D02*
X00536650Y00677300D01*
X00549350Y00702700D02*
X00555700Y00709050D01*
Y00721750D01*
X00549350Y00728100D02*
X00555700Y00721750D01*
X00536650Y00728100D02*
X00549350D01*
X00530300Y00721750D02*
X00536650Y00728100D01*
X00530300Y00709050D02*
Y00721750D01*
Y00709050D02*
X00536650Y00702700D01*
X00549350Y00728100D02*
X00555700Y00734450D01*
Y00747150D01*
X00549350Y00753500D02*
X00555700Y00747150D01*
X00536650Y00753500D02*
X00549350D01*
X00530300Y00747150D02*
X00536650Y00753500D01*
X00530300Y00734450D02*
Y00747150D01*
Y00734450D02*
X00536650Y00728100D01*
X00530300Y00785250D02*
X00536650Y00778900D01*
X00530300Y00785250D02*
Y00797950D01*
X00536650Y00804300D01*
X00549350D02*
X00555700Y00797950D01*
Y00785250D02*
Y00797950D01*
X00549350Y00778900D02*
X00555700Y00785250D01*
X00536650Y00804300D02*
X00549350D01*
D12*
X00305618Y00752774D02*
Y00742617D01*
X00303078D01*
X00292922Y00752774D01*
X00290382D01*
Y00742617D01*
X00292922Y00727382D02*
X00303078D01*
X00305618Y00729922D01*
Y00735000D01*
X00303078Y00737539D01*
X00292922D01*
X00290382Y00735000D01*
Y00729922D01*
X00295461Y00732461D02*
X00290382Y00727382D01*
Y00729922D02*
X00292922Y00727382D01*
X00290382Y00722304D02*
Y00717226D01*
Y00719765D01*
X00305618D01*
X00303078Y00722304D01*
X00462000Y00515235D02*
X00472157Y00500000D01*
Y00515235D02*
X00462000Y00500000D01*
X00477235Y00512696D02*
X00479774Y00515235D01*
X00484853D01*
X00487392Y00512696D01*
Y00510157D01*
X00484853Y00507617D01*
X00482313D01*
X00484853D01*
X00487392Y00505078D01*
Y00502539D01*
X00484853Y00500000D01*
X00479774D01*
X00477235Y00502539D01*
X00531842Y00853629D02*
X00541999Y00838394D01*
Y00853629D02*
X00531842Y00838394D01*
X00547077D02*
X00552155D01*
X00549616D01*
Y00853629D01*
X00547077Y00851090D01*
X00363339Y00926000D02*
X00373496D01*
X00378574Y00931078D01*
X00373496Y00936156D01*
X00363339D01*
Y00941235D02*
X00378574D01*
Y00948852D01*
X00376035Y00951392D01*
X00365878D01*
X00363339Y00948852D01*
Y00941235D01*
X00365878Y00956470D02*
X00363339Y00959009D01*
Y00964087D01*
X00365878Y00966627D01*
X00368417D01*
X00370956Y00964087D01*
Y00961548D01*
Y00964087D01*
X00373496Y00966627D01*
X00376035D01*
X00378574Y00964087D01*
Y00959009D01*
X00376035Y00956470D01*
X00388765Y00925500D02*
X00398922D01*
X00404000Y00930578D01*
X00398922Y00935657D01*
X00388765D01*
Y00940735D02*
X00404000D01*
Y00948353D01*
X00401461Y00950892D01*
X00391304D01*
X00388765Y00948353D01*
Y00940735D01*
X00404000Y00966127D02*
Y00955970D01*
X00393843Y00966127D01*
X00391304D01*
X00388765Y00963588D01*
Y00958509D01*
X00391304Y00955970D01*
X00332383Y00605078D02*
X00329843Y00607617D01*
X00324765D01*
X00322226Y00605078D01*
Y00602539D01*
X00324765Y00600000D01*
X00329843D01*
X00332383Y00597461D01*
Y00594922D01*
X00329843Y00592383D01*
X00324765D01*
X00322226Y00594922D01*
X00337461Y00607617D02*
Y00592383D01*
X00345078D01*
X00347618Y00594922D01*
Y00597461D01*
X00345078Y00600000D01*
X00337461D01*
X00345078D01*
X00347618Y00602539D01*
Y00605078D01*
X00345078Y00607617D01*
X00337461D01*
X00352696Y00592383D02*
X00357774D01*
X00355235D01*
Y00607617D01*
X00352696Y00605078D01*
X00462500Y00568750D02*
Y00583985D01*
X00470117D01*
X00472657Y00581446D01*
Y00576367D01*
X00470117Y00573828D01*
X00462500D01*
X00467578D02*
X00472657Y00568750D01*
X00477735Y00571289D02*
X00480274Y00568750D01*
X00485353D01*
X00487892Y00571289D01*
Y00581446D01*
X00485353Y00583985D01*
X00480274D01*
X00477735Y00581446D01*
Y00578907D01*
X00480274Y00576367D01*
X00487892D01*
X00338500Y00538750D02*
Y00553985D01*
X00346118D01*
X00348657Y00551446D01*
Y00546367D01*
X00346118Y00543828D01*
X00338500D01*
X00343578D02*
X00348657Y00538750D01*
X00353735Y00551446D02*
X00356274Y00553985D01*
X00361353D01*
X00363892Y00551446D01*
Y00548907D01*
X00361353Y00546367D01*
X00363892Y00543828D01*
Y00541289D01*
X00361353Y00538750D01*
X00356274D01*
X00353735Y00541289D01*
Y00543828D01*
X00356274Y00546367D01*
X00353735Y00548907D01*
Y00551446D01*
X00356274Y00546367D02*
X00361353D01*
X00362575Y00832499D02*
X00377809D01*
Y00824882D01*
X00375270Y00822343D01*
X00370192D01*
X00367653Y00824882D01*
Y00832499D01*
Y00827421D02*
X00362575Y00822343D01*
X00377809Y00817264D02*
Y00807108D01*
X00375270D01*
X00365114Y00817264D01*
X00362575D01*
X00388955Y00833500D02*
X00404190D01*
Y00825882D01*
X00401651Y00823343D01*
X00396573D01*
X00394034Y00825882D01*
Y00833500D01*
Y00828421D02*
X00388955Y00823343D01*
X00404190Y00808108D02*
X00401651Y00813186D01*
X00396573Y00818264D01*
X00391495D01*
X00388955Y00815725D01*
Y00810647D01*
X00391495Y00808108D01*
X00394034D01*
X00396573Y00810647D01*
Y00818264D01*
X00335249Y00711000D02*
X00350485D01*
Y00703382D01*
X00347945Y00700843D01*
X00342867D01*
X00340328Y00703382D01*
Y00711000D01*
Y00705922D02*
X00335249Y00700843D01*
Y00685608D02*
Y00695765D01*
X00345406Y00685608D01*
X00347945D01*
X00350485Y00688147D01*
Y00693226D01*
X00347945Y00695765D01*
X00359000Y00635000D02*
Y00650235D01*
X00366618D01*
X00369157Y00647696D01*
Y00642617D01*
X00366618Y00640078D01*
X00359000D01*
X00364078D02*
X00369157Y00635000D01*
X00374235D02*
X00379313D01*
X00376774D01*
Y00650235D01*
X00374235Y00647696D01*
X00385018Y00739405D02*
Y00724170D01*
X00392635D01*
X00395175Y00726709D01*
Y00736866D01*
X00392635Y00739405D01*
X00385018D01*
X00400253Y00724170D02*
X00405331D01*
X00402792D01*
Y00739405D01*
X00400253Y00736866D01*
X00453696Y00514093D02*
X00456236Y00516632D01*
Y00521711D01*
X00453696Y00524250D01*
X00443540D01*
X00441000Y00521711D01*
Y00516632D01*
X00443540Y00514093D01*
X00453696Y00509015D02*
X00456236Y00506476D01*
Y00501397D01*
X00453696Y00498858D01*
X00451157D01*
X00448618Y00501397D01*
X00446079Y00498858D01*
X00443540D01*
X00441000Y00501397D01*
Y00506476D01*
X00443540Y00509015D01*
X00446079D01*
X00448618Y00506476D01*
X00451157Y00509015D01*
X00453696D01*
X00448618Y00506476D02*
Y00501397D01*
X00320157Y00655696D02*
X00317617Y00658235D01*
X00312539D01*
X00310000Y00655696D01*
Y00645539D01*
X00312539Y00643000D01*
X00317617D01*
X00320157Y00645539D01*
X00325235Y00658235D02*
X00335392D01*
Y00655696D01*
X00325235Y00645539D01*
Y00643000D01*
X00270304Y00559157D02*
X00267765Y00556618D01*
Y00551539D01*
X00270304Y00549000D01*
X00280461D01*
X00283000Y00551539D01*
Y00556618D01*
X00280461Y00559157D01*
X00267765Y00574392D02*
X00270304Y00569313D01*
X00275383Y00564235D01*
X00280461D01*
X00283000Y00566774D01*
Y00571852D01*
X00280461Y00574392D01*
X00277922D01*
X00275383Y00571852D01*
Y00564235D01*
X00321157Y00825696D02*
X00318617Y00828235D01*
X00313539D01*
X00311000Y00825696D01*
Y00815539D01*
X00313539Y00813000D01*
X00318617D01*
X00321157Y00815539D01*
X00336392Y00828235D02*
X00326235D01*
Y00820618D01*
X00331313Y00823157D01*
X00333853D01*
X00336392Y00820618D01*
Y00815539D01*
X00333853Y00813000D01*
X00328774D01*
X00326235Y00815539D01*
X00526078Y00910039D02*
X00528618Y00912578D01*
Y00917656D01*
X00526078Y00920196D01*
X00515922D01*
X00513383Y00917656D01*
Y00912578D01*
X00515922Y00910039D01*
X00513383Y00897343D02*
X00528618D01*
X00521000Y00904961D01*
Y00894804D01*
M02*
