G04*
G04 #@! TF.GenerationSoftware,Altium Limited,Altium Designer,20.0.14 (345)*
G04*
G04 Layer_Color=65535*
%FSAX44Y44*%
%MOMM*%
G71*
G01*
G75*
%ADD10C,0.2000*%
%ADD11C,0.2500*%
%ADD12C,0.2540*%
G36*
X00330500Y00591000D02*
Y00511000D01*
X00322500Y00513000D01*
X00315000Y00516500D01*
X00309250Y00521000D01*
X00304250Y00526000D01*
X00299750Y00533250D01*
X00297000Y00540000D01*
X00295500Y00547750D01*
X00295750Y00555250D01*
X00297000Y00562250D01*
X00300000Y00569500D01*
X00303500Y00575000D01*
X00308500Y00580500D01*
X00314250Y00584750D01*
X00323250Y00589000D01*
X00330500Y00591000D01*
D02*
G37*
D10*
X00375500Y00551000D02*
G03*
X00375500Y00551000I-00040000J00000000D01*
G01*
X00380750Y00542000D02*
X00397250D01*
X00380750Y00508000D02*
X00397250D01*
Y00542000D01*
X00380750Y00508000D02*
Y00542000D01*
X00526695Y00604300D02*
Y00638300D01*
X00510195Y00604300D02*
Y00638300D01*
X00526695D01*
X00510195Y00604300D02*
X00526695D01*
X00432439Y00801761D02*
Y00818261D01*
X00398439Y00801761D02*
Y00818261D01*
Y00801761D02*
X00432439D01*
X00398439Y00818261D02*
X00432439D01*
X00311000Y00813000D02*
Y00857000D01*
X00291000Y00813000D02*
Y00857000D01*
X00311000D01*
X00291000Y00813000D02*
X00311000D01*
X00291000Y00842500D02*
X00311000D01*
X00292750Y00770965D02*
X00309250D01*
X00292750Y00804965D02*
X00309250D01*
X00292750Y00770965D02*
Y00804965D01*
X00309250Y00770965D02*
Y00804965D01*
X00292750Y00636250D02*
X00309250D01*
X00292750Y00670250D02*
X00309250D01*
X00292750Y00636250D02*
Y00670250D01*
X00309250Y00636250D02*
Y00670250D01*
X00311000Y00697910D02*
Y00741910D01*
X00291000Y00697910D02*
Y00741910D01*
X00311000D01*
X00291000Y00697910D02*
X00311000D01*
X00291000Y00727410D02*
X00311000D01*
X00416000Y00520500D02*
Y00540500D01*
X00431000Y00560500D02*
X00491000D01*
X00506000Y00520500D02*
Y00540500D01*
X00431000Y00500500D02*
X00491000D01*
X00419550Y00604300D02*
X00425900Y00610650D01*
X00406850Y00604300D02*
X00419550D01*
X00400500Y00610650D02*
X00406850Y00604300D01*
X00400500Y00610650D02*
Y00623350D01*
X00406850Y00629700D01*
X00419550D01*
X00425900Y00623350D01*
X00444950Y00604300D02*
X00451300Y00610650D01*
X00432250Y00604300D02*
X00444950D01*
X00425900Y00610650D02*
X00432250Y00604300D01*
X00425900Y00610650D02*
Y00623350D01*
X00432250Y00629700D01*
X00444950D01*
X00451300Y00623350D01*
X00476700Y00629700D02*
X00502100D01*
X00470350D02*
X00476700Y00623350D01*
X00457650Y00629700D02*
X00470350D01*
X00451300Y00623350D02*
X00457650Y00629700D01*
X00451300Y00610650D02*
Y00623350D01*
Y00610650D02*
X00457650Y00604300D01*
X00470350D01*
X00476700Y00610650D01*
X00502100Y00604300D02*
Y00629700D01*
X00476700Y00604300D02*
Y00629700D01*
Y00604300D02*
X00502100D01*
X00402263Y00638861D02*
Y00655361D01*
X00436263Y00638861D02*
Y00655361D01*
X00402263D02*
X00436263D01*
X00402263Y00638861D02*
X00436263D01*
X00502100Y00574050D02*
Y00590550D01*
X00468100Y00574050D02*
Y00590550D01*
Y00574050D02*
X00502100D01*
X00468100Y00590550D02*
X00502100D01*
X00433541Y00924750D02*
X00467541D01*
X00433541Y00908250D02*
X00467541D01*
X00433541D02*
Y00924750D01*
X00467541Y00908250D02*
Y00924750D01*
X00363289Y00908250D02*
X00397289D01*
X00363289Y00924750D02*
X00397289D01*
Y00908250D02*
Y00924750D01*
X00363289Y00908250D02*
Y00924750D01*
X00354000Y00878000D02*
Y00895001D01*
X00482000D01*
Y00878000D02*
Y00895001D01*
X00354000Y00845000D02*
Y00862000D01*
Y00845000D02*
X00482000D01*
Y00862000D01*
X00540250Y00513000D02*
Y00547000D01*
X00523750Y00513000D02*
Y00547000D01*
X00540250D01*
X00523750Y00513000D02*
X00540250D01*
X00378826Y00699212D02*
X00438826D01*
X00378826Y00759212D02*
X00438826D01*
Y00699212D02*
Y00759212D01*
X00378826Y00699212D02*
Y00759212D01*
X00522350Y00859700D02*
X00528700Y00866050D01*
Y00878750D01*
X00522350Y00885100D02*
X00528700Y00878750D01*
X00503300D02*
X00509650Y00885100D01*
X00503300Y00866050D02*
Y00878750D01*
Y00866050D02*
X00509650Y00859700D01*
Y00885100D02*
X00522350D01*
Y00808900D02*
X00528700Y00815250D01*
Y00827950D01*
X00522350Y00834300D02*
X00528700Y00827950D01*
X00503300D02*
X00509650Y00834300D01*
X00503300Y00815250D02*
Y00827950D01*
Y00815250D02*
X00509650Y00808900D01*
Y00834300D02*
X00522350D01*
X00503300Y00681900D02*
Y00707300D01*
X00528700D01*
X00503300Y00681900D02*
X00528700D01*
X00503300Y00713650D02*
X00509650Y00707300D01*
X00503300Y00713650D02*
Y00726350D01*
X00509650Y00732700D01*
X00522350D01*
X00528700Y00726350D01*
Y00713650D02*
Y00726350D01*
X00522350Y00707300D02*
X00528700Y00713650D01*
Y00681900D02*
Y00707300D01*
X00522350Y00732700D02*
X00528700Y00739050D01*
Y00751750D01*
X00522350Y00758100D02*
X00528700Y00751750D01*
X00509650Y00758100D02*
X00522350D01*
X00503300Y00751750D02*
X00509650Y00758100D01*
X00503300Y00739050D02*
Y00751750D01*
Y00739050D02*
X00509650Y00732700D01*
X00522350Y00758100D02*
X00528700Y00764450D01*
Y00777150D01*
X00522350Y00783500D02*
X00528700Y00777150D01*
X00509650Y00783500D02*
X00522350D01*
X00503300Y00777150D02*
X00509650Y00783500D01*
X00503300Y00764450D02*
Y00777150D01*
Y00764450D02*
X00509650Y00758100D01*
X00522350Y00783500D02*
X00528700Y00789850D01*
Y00802550D01*
X00522350Y00808900D02*
X00528700Y00802550D01*
X00509650Y00808900D02*
X00522350D01*
X00503300Y00802550D02*
X00509650Y00808900D01*
X00503300Y00789850D02*
Y00802550D01*
Y00789850D02*
X00509650Y00783500D01*
X00503300Y00840650D02*
X00509650Y00834300D01*
X00503300Y00840650D02*
Y00853350D01*
X00509650Y00859700D01*
X00522350D02*
X00528700Y00853350D01*
Y00840650D02*
Y00853350D01*
X00522350Y00834300D02*
X00528700Y00840650D01*
X00509650Y00859700D02*
X00522350D01*
D11*
X00368075Y00763212D02*
G03*
X00368075Y00763212I-00001250J00000000D01*
G01*
D12*
X00381843Y00555382D02*
Y00570617D01*
X00389461D01*
X00392000Y00568078D01*
Y00563000D01*
X00389461Y00560461D01*
X00381843D01*
X00386922D02*
X00392000Y00555382D01*
X00397078D02*
X00402157D01*
X00399618D01*
Y00570617D01*
X00397078Y00568078D01*
X00516461Y00656078D02*
X00513922Y00658617D01*
X00508843D01*
X00506304Y00656078D01*
Y00645922D01*
X00508843Y00643382D01*
X00513922D01*
X00516461Y00645922D01*
X00521539Y00656078D02*
X00524078Y00658617D01*
X00529157D01*
X00531696Y00656078D01*
Y00653539D01*
X00529157Y00651000D01*
X00531696Y00648461D01*
Y00645922D01*
X00529157Y00643382D01*
X00524078D01*
X00521539Y00645922D01*
Y00648461D01*
X00524078Y00651000D01*
X00521539Y00653539D01*
Y00656078D01*
X00524078Y00651000D02*
X00529157D01*
X00402304Y00823382D02*
Y00838617D01*
X00409922D01*
X00412461Y00836078D01*
Y00831000D01*
X00409922Y00828461D01*
X00402304D01*
X00407383D02*
X00412461Y00823382D01*
X00427696D02*
X00417539D01*
X00427696Y00833539D01*
Y00836078D01*
X00425157Y00838617D01*
X00420078D01*
X00417539Y00836078D01*
X00269382Y00811687D02*
X00279539D01*
X00284618Y00816765D01*
X00279539Y00821843D01*
X00269382D01*
Y00826922D02*
X00284618D01*
Y00834539D01*
X00282078Y00837078D01*
X00271922D01*
X00269382Y00834539D01*
Y00826922D01*
X00284618Y00852313D02*
Y00842157D01*
X00274461Y00852313D01*
X00271922D01*
X00269382Y00849774D01*
Y00844696D01*
X00271922Y00842157D01*
X00285618Y00776304D02*
X00270382D01*
Y00783922D01*
X00272922Y00786461D01*
X00278000D01*
X00280539Y00783922D01*
Y00776304D01*
Y00781382D02*
X00285618Y00786461D01*
X00270382Y00801696D02*
X00272922Y00796618D01*
X00278000Y00791539D01*
X00283078D01*
X00285618Y00794078D01*
Y00799157D01*
X00283078Y00801696D01*
X00280539D01*
X00278000Y00799157D01*
Y00791539D01*
X00287617Y00643304D02*
X00272383D01*
Y00650922D01*
X00274922Y00653461D01*
X00280000D01*
X00282539Y00650922D01*
Y00643304D01*
Y00648382D02*
X00287617Y00653461D01*
X00272383Y00658539D02*
Y00668696D01*
X00274922D01*
X00285078Y00658539D01*
X00287617D01*
X00270382Y00698687D02*
X00280539D01*
X00285618Y00703765D01*
X00280539Y00708843D01*
X00270382D01*
Y00713922D02*
X00285618D01*
Y00721539D01*
X00283078Y00724078D01*
X00272922D01*
X00270382Y00721539D01*
Y00713922D01*
X00272922Y00729157D02*
X00270382Y00731696D01*
Y00736774D01*
X00272922Y00739313D01*
X00275461D01*
X00278000Y00736774D01*
Y00734235D01*
Y00736774D01*
X00280539Y00739313D01*
X00283078D01*
X00285618Y00736774D01*
Y00731696D01*
X00283078Y00729157D01*
X00448382Y00539578D02*
X00445843Y00542117D01*
X00440765D01*
X00438226Y00539578D01*
Y00537039D01*
X00440765Y00534500D01*
X00445843D01*
X00448382Y00531960D01*
Y00529421D01*
X00445843Y00526882D01*
X00440765D01*
X00438226Y00529421D01*
X00453461Y00542117D02*
Y00526882D01*
X00461078D01*
X00463617Y00529421D01*
Y00531960D01*
X00461078Y00534500D01*
X00453461D01*
X00461078D01*
X00463617Y00537039D01*
Y00539578D01*
X00461078Y00542117D01*
X00453461D01*
X00468696Y00526882D02*
X00473774D01*
X00471235D01*
Y00542117D01*
X00468696Y00539578D01*
X00344461Y00576078D02*
X00341922Y00578618D01*
X00336843D01*
X00334304Y00576078D01*
Y00565922D01*
X00336843Y00563382D01*
X00341922D01*
X00344461Y00565922D01*
X00357157Y00563382D02*
Y00578618D01*
X00349539Y00571000D01*
X00359696D01*
X00394304Y00600617D02*
X00404461Y00585382D01*
Y00600617D02*
X00394304Y00585382D01*
X00409539Y00598078D02*
X00412078Y00600617D01*
X00417157D01*
X00419696Y00598078D01*
Y00595539D01*
X00417157Y00593000D01*
X00414618D01*
X00417157D01*
X00419696Y00590461D01*
Y00587922D01*
X00417157Y00585382D01*
X00412078D01*
X00409539Y00587922D01*
X00439304Y00639383D02*
Y00654617D01*
X00446922D01*
X00449461Y00652078D01*
Y00647000D01*
X00446922Y00644461D01*
X00439304D01*
X00444383D02*
X00449461Y00639383D01*
X00454539Y00652078D02*
X00457078Y00654617D01*
X00462157D01*
X00464696Y00652078D01*
Y00649539D01*
X00462157Y00647000D01*
X00464696Y00644461D01*
Y00641922D01*
X00462157Y00639383D01*
X00457078D01*
X00454539Y00641922D01*
Y00644461D01*
X00457078Y00647000D01*
X00454539Y00649539D01*
Y00652078D01*
X00457078Y00647000D02*
X00462157D01*
X00422336Y00564856D02*
Y00580091D01*
X00429954D01*
X00432493Y00577552D01*
Y00572474D01*
X00429954Y00569935D01*
X00422336D01*
X00427415D02*
X00432493Y00564856D01*
X00437571Y00567395D02*
X00440111Y00564856D01*
X00445189D01*
X00447728Y00567395D01*
Y00577552D01*
X00445189Y00580091D01*
X00440111D01*
X00437571Y00577552D01*
Y00575013D01*
X00440111Y00572474D01*
X00447728D01*
X00448461Y00942078D02*
X00445922Y00944617D01*
X00440843D01*
X00438304Y00942078D01*
Y00931922D01*
X00440843Y00929382D01*
X00445922D01*
X00448461Y00931922D01*
X00453539Y00944617D02*
X00463696D01*
Y00942078D01*
X00453539Y00931922D01*
Y00929382D01*
X00377461Y00942078D02*
X00374922Y00944617D01*
X00369843D01*
X00367304Y00942078D01*
Y00931922D01*
X00369843Y00929382D01*
X00374922D01*
X00377461Y00931922D01*
X00392696Y00944617D02*
X00382539D01*
Y00937000D01*
X00387617Y00939539D01*
X00390157D01*
X00392696Y00937000D01*
Y00931922D01*
X00390157Y00929382D01*
X00385078D01*
X00382539Y00931922D01*
X00401226Y00878617D02*
X00411382D01*
Y00876078D01*
X00401226Y00865922D01*
Y00863382D01*
X00411382D01*
X00426618Y00865922D02*
Y00876078D01*
X00424078Y00878617D01*
X00419000D01*
X00416461Y00876078D01*
Y00865922D01*
X00419000Y00863382D01*
X00424078D01*
X00421539Y00868461D02*
X00426618Y00863382D01*
X00424078D02*
X00426618Y00865922D01*
X00431696Y00863382D02*
X00436774D01*
X00434235D01*
Y00878617D01*
X00431696Y00876078D01*
X00504842Y00909029D02*
X00514999Y00893794D01*
Y00909029D02*
X00504842Y00893794D01*
X00520077D02*
X00525155D01*
X00522616D01*
Y00909029D01*
X00520077Y00906490D01*
X00384843Y00737617D02*
Y00722383D01*
X00392461D01*
X00395000Y00724922D01*
Y00735078D01*
X00392461Y00737617D01*
X00384843D01*
X00400078Y00722383D02*
X00405157D01*
X00402618D01*
Y00737617D01*
X00400078Y00735078D01*
X00525850Y00564322D02*
X00523311Y00561783D01*
Y00556705D01*
X00525850Y00554166D01*
X00536007D01*
X00538546Y00556705D01*
Y00561783D01*
X00536007Y00564322D01*
X00523311Y00579557D02*
X00525850Y00574479D01*
X00530928Y00569401D01*
X00536007D01*
X00538546Y00571940D01*
Y00577018D01*
X00536007Y00579557D01*
X00533467D01*
X00530928Y00577018D01*
Y00569401D01*
M02*
