G04*
G04 #@! TF.GenerationSoftware,Altium Limited,Altium Designer,20.0.14 (345)*
G04*
G04 Layer_Color=32768*
%FSAX44Y44*%
%MOMM*%
G71*
G01*
G75*
%ADD58C,0.1000*%
%ADD59C,0.0500*%
D58*
X00541000Y00919000D02*
G03*
X00541000Y00919000I-00040000J00000000D01*
G01*
X00442000Y00886000D02*
X00452000D01*
X00447000Y00881000D02*
Y00891000D01*
X00440000Y00902750D02*
X00454000D01*
X00440000Y00869250D02*
X00454000D01*
X00440000D02*
Y00902750D01*
X00454000Y00869250D02*
Y00902750D01*
X00357001Y00679000D02*
Y00783000D01*
X00461000Y00679000D02*
Y00783000D01*
X00357001D02*
X00461000D01*
X00357001Y00679000D02*
X00461000D01*
X00404000Y00731000D02*
X00414000D01*
X00409001Y00726000D02*
Y00736000D01*
X00383250Y00636000D02*
X00416750D01*
X00383250Y00650000D02*
X00416750D01*
Y00636000D02*
Y00650000D01*
X00383250Y00636000D02*
Y00650000D01*
X00395000Y00643000D02*
X00405000D01*
X00400000Y00638000D02*
Y00648000D01*
X00357750Y00920500D02*
Y00978500D01*
X00459750D01*
Y00920500D02*
Y00978500D01*
X00357750Y00920500D02*
X00459750D01*
X00443000Y00545250D02*
X00453000D01*
X00448000Y00540250D02*
Y00550250D01*
X00441000Y00562250D02*
X00455000D01*
X00441000Y00528250D02*
X00455000D01*
Y00562250D01*
X00441000Y00528250D02*
Y00562250D01*
X00346249Y00718250D02*
Y00751750D01*
X00332249Y00718250D02*
Y00751750D01*
X00346249D01*
X00332249Y00718250D02*
X00346249D01*
X00339249Y00730000D02*
Y00740000D01*
X00334249Y00735000D02*
X00344249D01*
X00391500Y00899500D02*
X00401500D01*
X00396500Y00894500D02*
Y00904500D01*
X00386500Y00921500D02*
X00406500D01*
X00386500Y00877500D02*
X00406500D01*
Y00921500D01*
X00386500Y00877500D02*
Y00921500D01*
X00403500Y00838750D02*
Y00872250D01*
X00389500Y00838750D02*
Y00872250D01*
X00403500D01*
X00389500Y00838750D02*
X00403500D01*
X00396500Y00850500D02*
Y00860500D01*
X00391500Y00855500D02*
X00401500D01*
X00377574Y00838750D02*
Y00872250D01*
X00363574Y00838750D02*
Y00872250D01*
X00377574D01*
X00363574Y00838750D02*
X00377574D01*
X00370574Y00850500D02*
Y00860500D01*
X00365574Y00855499D02*
X00375574D01*
X00514001Y00858000D02*
Y00868000D01*
X00509000Y00863001D02*
X00519000D01*
X00531000Y00856000D02*
Y00870000D01*
X00497000Y00856000D02*
Y00870000D01*
X00531000D01*
X00497000Y00856000D02*
X00531000D01*
X00365574Y00899500D02*
X00375574D01*
X00370574Y00894500D02*
Y00904500D01*
X00360574Y00921500D02*
X00380574D01*
X00360574Y00877499D02*
X00380574D01*
Y00921500D01*
X00360574Y00877499D02*
Y00921500D01*
X00340000Y00596000D02*
X00350000D01*
X00345000Y00591001D02*
Y00601001D01*
X00401000Y00565001D02*
Y00627001D01*
X00288000D02*
X00401000D01*
X00288000Y00565001D02*
Y00627001D01*
Y00565001D02*
X00401000D01*
X00496001Y00919000D02*
X00506001D01*
X00501000Y00914000D02*
Y00924000D01*
X00407300Y00503000D02*
Y00513000D01*
X00402300Y00508000D02*
X00412300D01*
X00400000Y00886000D02*
X00410000D01*
X00405000Y00881000D02*
Y00891000D01*
X00398000Y00902750D02*
X00412000D01*
X00398000Y00869250D02*
X00412000D01*
X00398000D02*
Y00902750D01*
X00412000Y00869250D02*
Y00902750D01*
X00421000Y00886000D02*
X00431000D01*
X00426000Y00881000D02*
Y00891000D01*
X00419000Y00902750D02*
X00433000D01*
X00419000Y00869250D02*
X00433000D01*
X00419000D02*
Y00902750D01*
X00433000Y00869250D02*
Y00902750D01*
X00367750Y00539500D02*
X00401250D01*
X00367750Y00553500D02*
X00401250D01*
Y00539500D02*
Y00553500D01*
X00367750Y00539500D02*
Y00553500D01*
X00379500Y00546500D02*
X00389500D01*
X00384500Y00541500D02*
Y00551500D01*
X00422000Y00583000D02*
X00455500D01*
X00422000Y00569000D02*
X00455500D01*
X00422000D02*
Y00583000D01*
X00455500Y00569000D02*
Y00583000D01*
X00433750Y00576000D02*
X00443750D01*
X00438750Y00571000D02*
Y00581000D01*
X00289000Y00645000D02*
Y00655000D01*
X00284000Y00650000D02*
X00294000D01*
X00306000Y00643000D02*
Y00657001D01*
X00272000Y00643000D02*
Y00657001D01*
Y00643000D02*
X00306000D01*
X00272000Y00657001D02*
X00306000D01*
X00289000Y00816000D02*
Y00826000D01*
X00284000Y00821000D02*
X00294000D01*
X00306000Y00814000D02*
Y00828000D01*
X00272000Y00814000D02*
Y00828000D01*
Y00814000D02*
X00306000D01*
X00272000Y00828000D02*
X00306000D01*
X00322000Y00663500D02*
Y00808500D01*
X00272000Y00663500D02*
Y00808500D01*
Y00663500D02*
X00322000D01*
X00272000Y00808500D02*
X00322000D01*
X00297000Y00726000D02*
Y00746000D01*
X00287000Y00736000D02*
X00307000D01*
X00270000Y00596000D02*
X00280000D01*
X00275000Y00591000D02*
Y00601000D01*
X00268000Y00579000D02*
X00282000D01*
X00268000Y00613000D02*
X00282000D01*
X00268000Y00579000D02*
Y00613000D01*
X00282000Y00579000D02*
Y00613000D01*
X00496999Y00743046D02*
Y00753046D01*
X00491999Y00748046D02*
X00501999D01*
X00513999Y00741046D02*
Y00755046D01*
X00479999Y00741046D02*
Y00755046D01*
X00513999D01*
X00479999Y00741046D02*
X00513999D01*
X00497000Y00765000D02*
Y00775000D01*
X00492000Y00770000D02*
X00502000D01*
X00514000Y00763000D02*
Y00777000D01*
X00480000Y00763000D02*
Y00777000D01*
X00514000D01*
X00480000Y00763000D02*
X00514000D01*
X00496999Y00698892D02*
Y00708892D01*
X00491999Y00703892D02*
X00501999D01*
X00513999Y00696891D02*
Y00710892D01*
X00479999Y00696891D02*
Y00710892D01*
X00513999D01*
X00479999Y00696891D02*
X00513999D01*
X00497000Y00721250D02*
Y00731250D01*
X00492000Y00726250D02*
X00502000D01*
X00514000Y00719250D02*
Y00733250D01*
X00480000Y00719250D02*
Y00733250D01*
X00514000D01*
X00480000Y00719250D02*
X00514000D01*
X00385500Y00784500D02*
Y00849500D01*
X00468000Y00784500D02*
Y00849500D01*
X00385500Y00784500D02*
X00468000D01*
X00385500Y00849500D02*
X00468000D01*
X00428000Y00809500D02*
Y00824500D01*
X00420500Y00817000D02*
X00435500D01*
X00348640Y00815750D02*
Y00849750D01*
X00362640Y00815750D02*
Y00849750D01*
X00348640D02*
X00362640D01*
X00348640Y00815750D02*
X00362640D01*
X00355640Y00827750D02*
Y00837750D01*
X00350640Y00832750D02*
X00360640D01*
X00300646Y00858000D02*
Y00868000D01*
X00295646Y00863000D02*
X00305646D01*
X00276146Y00816000D02*
X00325146D01*
X00276146D02*
Y00910000D01*
X00325146D01*
Y00816000D02*
Y00910000D01*
X00362000Y00883000D02*
Y00893000D01*
X00357000Y00888000D02*
X00367000D01*
X00392999Y00873000D02*
Y00903000D01*
X00331000Y00873000D02*
X00392999D01*
X00331000D02*
Y00903000D01*
X00392999D01*
X00543000Y00723100D02*
Y00733100D01*
X00538000Y00728100D02*
X00548000D01*
D59*
X00356500Y00495300D02*
Y00520700D01*
Y00495300D02*
X00458100D01*
Y00520700D01*
X00356500D02*
X00458100D01*
X00530300Y00626500D02*
Y00829700D01*
X00555700D01*
Y00626500D02*
Y00829700D01*
X00530300Y00626500D02*
X00555700D01*
M02*
