G04*
G04 #@! TF.GenerationSoftware,Altium Limited,Altium Designer,20.0.14 (345)*
G04*
G04 Layer_Color=8388736*
%FSAX44Y44*%
%MOMM*%
G71*
G01*
G75*
%ADD20O,1.5200X0.4200*%
%ADD21O,0.4200X1.5200*%
%ADD22R,1.1200X1.3700*%
%ADD23R,1.3700X1.1200*%
%ADD24R,1.7200X1.1200*%
%ADD25R,2.2200X1.5200*%
%ADD26R,0.9200X5.1200*%
%ADD27C,0.1200*%
%ADD28P,1.8617X8X112.5*%
%ADD29C,1.7200*%
%ADD30C,2.1200*%
%ADD31R,2.1200X2.1200*%
%ADD32R,2.1200X2.1200*%
%ADD33C,0.5200*%
D20*
X00367001Y00758500D02*
D03*
Y00753500D02*
D03*
Y00748500D02*
D03*
Y00743500D02*
D03*
Y00738500D02*
D03*
Y00733500D02*
D03*
Y00728500D02*
D03*
Y00723500D02*
D03*
Y00718500D02*
D03*
Y00713500D02*
D03*
Y00708500D02*
D03*
Y00703500D02*
D03*
X00451000D02*
D03*
Y00708500D02*
D03*
Y00713500D02*
D03*
Y00718500D02*
D03*
Y00723500D02*
D03*
Y00728500D02*
D03*
Y00733500D02*
D03*
Y00738500D02*
D03*
Y00743500D02*
D03*
Y00748500D02*
D03*
Y00753500D02*
D03*
Y00758500D02*
D03*
D21*
X00381500Y00689000D02*
D03*
X00386500D02*
D03*
X00391500D02*
D03*
X00396500D02*
D03*
X00401500D02*
D03*
X00406500D02*
D03*
X00411500D02*
D03*
X00416501D02*
D03*
X00421500D02*
D03*
X00426501D02*
D03*
X00431500D02*
D03*
X00436501D02*
D03*
Y00773000D02*
D03*
X00431500D02*
D03*
X00426501D02*
D03*
X00421500D02*
D03*
X00416501D02*
D03*
X00411500D02*
D03*
X00406500D02*
D03*
X00401500D02*
D03*
X00396500D02*
D03*
X00391500D02*
D03*
X00386500D02*
D03*
X00381500D02*
D03*
D22*
X00390000Y00643000D02*
D03*
X00410000D02*
D03*
X00374500Y00546500D02*
D03*
X00394500D02*
D03*
X00448750Y00576000D02*
D03*
X00428750D02*
D03*
X00279000Y00650000D02*
D03*
X00299000D02*
D03*
X00279000Y00821000D02*
D03*
X00299000D02*
D03*
D23*
X00448000Y00535250D02*
D03*
Y00555250D02*
D03*
X00339249Y00725000D02*
D03*
Y00745000D02*
D03*
X00396500Y00845500D02*
D03*
Y00865500D02*
D03*
X00370574Y00845499D02*
D03*
Y00865499D02*
D03*
X00275000Y00606000D02*
D03*
Y00586000D02*
D03*
D24*
X00396500Y00884500D02*
D03*
Y00914500D02*
D03*
X00370574Y00884500D02*
D03*
Y00914500D02*
D03*
D25*
X00300000Y00618501D02*
D03*
Y00573501D02*
D03*
X00390000Y00618501D02*
D03*
Y00573501D02*
D03*
D26*
X00297000Y00691000D02*
D03*
Y00781000D02*
D03*
D27*
X00530000Y00516000D02*
D03*
X00290000D02*
D03*
Y00956000D02*
D03*
D28*
X00501000Y00901500D02*
D03*
D29*
Y00936500D02*
D03*
D30*
X00445400Y00508000D02*
D03*
X00394600D02*
D03*
X00420000D02*
D03*
X00543000Y00817000D02*
D03*
Y00766200D02*
D03*
Y00690000D02*
D03*
Y00664600D02*
D03*
Y00715400D02*
D03*
Y00740800D02*
D03*
Y00791600D02*
D03*
D31*
X00369200Y00508000D02*
D03*
D32*
X00543000Y00639200D02*
D03*
D33*
X00445000Y00648250D02*
D03*
X00395500Y00712000D02*
D03*
X00372500Y00821500D02*
D03*
X00492500Y00840250D02*
D03*
X00447250Y00601500D02*
D03*
X00423750Y00642250D02*
D03*
X00446750Y00685250D02*
D03*
X00443750Y00773250D02*
D03*
X00482250Y00681000D02*
D03*
X00407250Y00567500D02*
D03*
Y00720000D02*
D03*
X00437000Y00730000D02*
D03*
X00428250Y00743500D02*
D03*
X00513000Y00815000D02*
D03*
X00447000Y00826000D02*
D03*
X00438396Y00842750D02*
D03*
X00395500Y00728000D02*
D03*
Y00755000D02*
D03*
X00409000Y00732000D02*
D03*
M02*
