G04*
G04 #@! TF.GenerationSoftware,Altium Limited,Altium Designer,20.0.14 (345)*
G04*
G04 Layer_Color=32768*
%FSAX44Y44*%
%MOMM*%
G71*
G01*
G75*
%ADD59C,0.0500*%
G36*
X00301362Y00742354D02*
X00301487Y00742326D01*
X00301625Y00742270D01*
X00301764Y00742187D01*
X00301889Y00742049D01*
X00301931Y00741965D01*
X00301972Y00741854D01*
X00301986Y00741743D01*
X00302000Y00741605D01*
Y00741577D01*
X00301986Y00741480D01*
X00301958Y00741369D01*
X00301903Y00741230D01*
X00301820Y00741078D01*
X00301681Y00740967D01*
X00301598Y00740911D01*
X00301501Y00740870D01*
X00301376Y00740856D01*
X00301251Y00740842D01*
X00294525D01*
X00296869Y00738360D01*
X00296882Y00738346D01*
X00296896Y00738318D01*
X00296938Y00738276D01*
X00296980Y00738207D01*
X00297049Y00738041D01*
X00297077Y00737943D01*
X00297091Y00737833D01*
Y00737777D01*
X00297077Y00737722D01*
X00297063Y00737652D01*
X00297035Y00737569D01*
X00296994Y00737472D01*
X00296938Y00737389D01*
X00296855Y00737292D01*
X00296841Y00737278D01*
X00296813Y00737250D01*
X00296758Y00737222D01*
X00296702Y00737181D01*
X00296619Y00737125D01*
X00296522Y00737097D01*
X00296411Y00737070D01*
X00296300Y00737056D01*
X00296286D01*
X00296245D01*
X00296189Y00737070D01*
X00296120Y00737084D01*
X00296037Y00737111D01*
X00295940Y00737167D01*
X00295856Y00737222D01*
X00295759Y00737306D01*
X00292223Y00741092D01*
X00292209Y00741105D01*
X00292181Y00741147D01*
X00292126Y00741217D01*
X00292070Y00741286D01*
X00292015Y00741383D01*
X00291959Y00741494D01*
X00291931Y00741605D01*
X00291918Y00741730D01*
Y00741757D01*
X00291931Y00741827D01*
X00291959Y00741938D01*
X00292029Y00742049D01*
X00292126Y00742160D01*
X00292195Y00742215D01*
X00292278Y00742270D01*
X00292375Y00742312D01*
X00292500Y00742340D01*
X00292625Y00742367D01*
X00292778D01*
X00301251D01*
X00301265D01*
X00301279D01*
X00301362Y00742354D01*
D02*
G37*
G36*
X00302111Y00735974D02*
X00302180Y00735960D01*
X00302264Y00735933D01*
X00302361Y00735891D01*
X00302444Y00735835D01*
X00302541Y00735752D01*
X00302555Y00735738D01*
X00302582Y00735711D01*
X00302610Y00735655D01*
X00302652Y00735600D01*
X00302707Y00735517D01*
X00302735Y00735419D01*
X00302763Y00735322D01*
X00302777Y00735211D01*
Y00735198D01*
X00302763Y00735156D01*
X00302749Y00735087D01*
X00302707Y00734989D01*
X00302652Y00734865D01*
X00302555Y00734726D01*
X00302430Y00734560D01*
X00302250Y00734365D01*
X00302236Y00734352D01*
X00302180Y00734310D01*
X00302111Y00734227D01*
X00302000Y00734144D01*
X00301889Y00734033D01*
X00301750Y00733922D01*
X00301459Y00733658D01*
Y00733644D01*
X00301487Y00733617D01*
X00301515Y00733561D01*
X00301542Y00733492D01*
X00301584Y00733409D01*
X00301639Y00733298D01*
X00301695Y00733173D01*
X00301737Y00733048D01*
X00301847Y00732743D01*
X00301945Y00732410D01*
X00302000Y00732036D01*
X00302028Y00731661D01*
Y00731578D01*
X00302014Y00731481D01*
X00302000Y00731356D01*
X00301972Y00731204D01*
X00301945Y00731009D01*
X00301889Y00730815D01*
X00301820Y00730593D01*
X00301737Y00730358D01*
X00301625Y00730108D01*
X00301487Y00729844D01*
X00301334Y00729581D01*
X00301140Y00729317D01*
X00300918Y00729068D01*
X00300669Y00728818D01*
X00300377Y00728568D01*
X00300364Y00728555D01*
X00300308Y00728513D01*
X00300225Y00728457D01*
X00300114Y00728388D01*
X00299961Y00728305D01*
X00299795Y00728208D01*
X00299601Y00728097D01*
X00299379Y00728000D01*
X00299129Y00727889D01*
X00298866Y00727778D01*
X00298588Y00727681D01*
X00298283Y00727598D01*
X00297978Y00727528D01*
X00297645Y00727473D01*
X00297299Y00727431D01*
X00296952Y00727417D01*
X00296924D01*
X00296869D01*
X00296772Y00727431D01*
X00296633D01*
X00296467Y00727459D01*
X00296272Y00727473D01*
X00296050Y00727514D01*
X00295815Y00727570D01*
X00295565Y00727625D01*
X00295288Y00727709D01*
X00295010Y00727792D01*
X00294733Y00727903D01*
X00294442Y00728042D01*
X00294151Y00728194D01*
X00293859Y00728374D01*
X00293582Y00728582D01*
X00293568Y00728596D01*
X00293512Y00728638D01*
X00293443Y00728707D01*
X00293332Y00728804D01*
X00293221Y00728929D01*
X00293083Y00729082D01*
X00292944Y00729248D01*
X00292791Y00729442D01*
X00292653Y00729650D01*
X00292514Y00729886D01*
X00292375Y00730136D01*
X00292264Y00730413D01*
X00292153Y00730704D01*
X00292084Y00731009D01*
X00292029Y00731342D01*
X00292015Y00731675D01*
Y00731758D01*
X00292029Y00731855D01*
X00292043Y00731994D01*
X00292056Y00732147D01*
X00292098Y00732341D01*
X00292153Y00732549D01*
X00292209Y00732771D01*
X00292292Y00733006D01*
X00292403Y00733270D01*
X00292528Y00733520D01*
X00292680Y00733783D01*
X00292875Y00734046D01*
X00293083Y00734310D01*
X00293332Y00734560D01*
X00293610Y00734809D01*
X00293624Y00734823D01*
X00293679Y00734865D01*
X00293762Y00734920D01*
X00293873Y00734989D01*
X00294012Y00735087D01*
X00294178Y00735184D01*
X00294372Y00735295D01*
X00294580Y00735406D01*
X00294816Y00735503D01*
X00295080Y00735614D01*
X00295357Y00735711D01*
X00295662Y00735808D01*
X00295967Y00735877D01*
X00296300Y00735933D01*
X00296633Y00735974D01*
X00296994Y00735988D01*
X00297007D01*
X00297077D01*
X00297174Y00735974D01*
X00297299D01*
X00297465Y00735947D01*
X00297659Y00735933D01*
X00297867Y00735891D01*
X00298103Y00735849D01*
X00298353Y00735780D01*
X00298616Y00735711D01*
X00298907Y00735614D01*
X00299185Y00735503D01*
X00299476Y00735378D01*
X00299767Y00735211D01*
X00300058Y00735045D01*
X00300350Y00734837D01*
X00300364Y00734851D01*
X00300405Y00734893D01*
X00300461Y00734948D01*
X00300544Y00735017D01*
X00300641Y00735100D01*
X00300738Y00735198D01*
X00300988Y00735419D01*
X00301265Y00735628D01*
X00301542Y00735808D01*
X00301667Y00735877D01*
X00301792Y00735933D01*
X00301903Y00735974D01*
X00302000Y00735988D01*
X00302014D01*
X00302055D01*
X00302111Y00735974D01*
D02*
G37*
G36*
X00292888Y00726363D02*
X00292958Y00726349D01*
X00293041Y00726322D01*
X00293138Y00726280D01*
X00293235Y00726225D01*
X00293346Y00726155D01*
X00300364Y00720858D01*
Y00725601D01*
X00300377Y00725656D01*
X00300391Y00725739D01*
X00300419Y00725823D01*
X00300461Y00725920D01*
X00300516Y00726003D01*
X00300585Y00726086D01*
X00300599Y00726100D01*
X00300627Y00726128D01*
X00300669Y00726155D01*
X00300724Y00726197D01*
X00300807Y00726239D01*
X00300904Y00726280D01*
X00301001Y00726294D01*
X00301126Y00726308D01*
X00301140D01*
X00301182D01*
X00301237Y00726294D01*
X00301320Y00726280D01*
X00301404Y00726252D01*
X00301501Y00726211D01*
X00301598Y00726155D01*
X00301681Y00726086D01*
X00301695Y00726072D01*
X00301709Y00726044D01*
X00301750Y00726003D01*
X00301778Y00725947D01*
X00301820Y00725864D01*
X00301861Y00725767D01*
X00301875Y00725670D01*
X00301889Y00725545D01*
Y00719249D01*
X00301875Y00719207D01*
X00301861Y00719069D01*
X00301806Y00718916D01*
X00301737Y00718764D01*
X00301625Y00718625D01*
X00301542Y00718583D01*
X00301459Y00718542D01*
X00301362Y00718514D01*
X00301251Y00718500D01*
X00301237D01*
X00301196D01*
X00301140Y00718514D01*
X00301071Y00718528D01*
X00300974Y00718556D01*
X00300877Y00718597D01*
X00300780Y00718653D01*
X00300669Y00718722D01*
X00293651Y00724020D01*
Y00719277D01*
X00293637Y00719221D01*
X00293624Y00719138D01*
X00293596Y00719055D01*
X00293568Y00718958D01*
X00293512Y00718861D01*
X00293443Y00718777D01*
X00293429Y00718764D01*
X00293402Y00718750D01*
X00293360Y00718708D01*
X00293291Y00718680D01*
X00293207Y00718639D01*
X00293124Y00718597D01*
X00293013Y00718583D01*
X00292902Y00718569D01*
X00292888D01*
X00292847D01*
X00292791Y00718583D01*
X00292708Y00718597D01*
X00292625Y00718625D01*
X00292528Y00718653D01*
X00292445Y00718708D01*
X00292361Y00718777D01*
X00292348Y00718791D01*
X00292320Y00718819D01*
X00292292Y00718861D01*
X00292250Y00718930D01*
X00292209Y00719013D01*
X00292167Y00719110D01*
X00292153Y00719207D01*
X00292139Y00719332D01*
Y00725628D01*
X00292153Y00725670D01*
X00292167Y00725809D01*
X00292223Y00725961D01*
X00292292Y00726114D01*
X00292403Y00726252D01*
X00292486Y00726294D01*
X00292570Y00726336D01*
X00292666Y00726363D01*
X00292778Y00726377D01*
X00292791D01*
X00292833D01*
X00292888Y00726363D01*
D02*
G37*
G36*
X00432500Y00818645D02*
X00432625Y00818617D01*
X00432722Y00818576D01*
X00432805Y00818520D01*
X00432874Y00818465D01*
X00432971Y00818354D01*
X00433041Y00818243D01*
X00433069Y00818132D01*
X00433082Y00818062D01*
Y00818035D01*
X00433069Y00817910D01*
X00433041Y00817799D01*
X00432985Y00817688D01*
X00432930Y00817591D01*
X00432874Y00817522D01*
X00432819Y00817452D01*
X00432791Y00817411D01*
X00432777Y00817397D01*
X00429241Y00813611D01*
X00429144Y00813527D01*
X00429061Y00813472D01*
X00428963Y00813417D01*
X00428880Y00813389D01*
X00428811Y00813375D01*
X00428755Y00813361D01*
X00428714D01*
X00428700D01*
X00428589Y00813375D01*
X00428478Y00813403D01*
X00428381Y00813430D01*
X00428298Y00813486D01*
X00428242Y00813527D01*
X00428187Y00813555D01*
X00428159Y00813583D01*
X00428145Y00813597D01*
X00428062Y00813694D01*
X00428007Y00813777D01*
X00427965Y00813874D01*
X00427937Y00813957D01*
X00427923Y00814027D01*
X00427909Y00814082D01*
Y00814138D01*
X00427923Y00814249D01*
X00427951Y00814346D01*
X00428020Y00814512D01*
X00428062Y00814581D01*
X00428104Y00814623D01*
X00428117Y00814651D01*
X00428131Y00814665D01*
X00430475Y00817147D01*
X00423749D01*
X00423624Y00817161D01*
X00423499Y00817175D01*
X00423402Y00817216D01*
X00423319Y00817272D01*
X00423180Y00817383D01*
X00423097Y00817535D01*
X00423042Y00817674D01*
X00423014Y00817785D01*
X00423000Y00817882D01*
Y00817910D01*
X00423014Y00818048D01*
X00423028Y00818159D01*
X00423069Y00818270D01*
X00423111Y00818354D01*
X00423236Y00818492D01*
X00423374Y00818576D01*
X00423513Y00818631D01*
X00423638Y00818659D01*
X00423721Y00818673D01*
X00423735D01*
X00423749D01*
X00432223D01*
X00432375D01*
X00432500Y00818645D01*
D02*
G37*
G36*
X00423763Y00812349D02*
X00423860Y00812335D01*
X00423929Y00812321D01*
X00423957Y00812307D01*
X00432417Y00808868D01*
X00432472Y00808840D01*
X00432528Y00808798D01*
X00432639Y00808701D01*
X00432708Y00808604D01*
X00432722Y00808576D01*
X00432736Y00808562D01*
X00432791Y00808479D01*
X00432833Y00808396D01*
X00432888Y00808271D01*
X00432902Y00808188D01*
Y00807786D01*
X00432874Y00807717D01*
X00432819Y00807592D01*
X00432791Y00807522D01*
X00432763Y00807481D01*
X00432749Y00807453D01*
X00432736Y00807439D01*
X00432680Y00807356D01*
X00432611Y00807300D01*
X00432555Y00807245D01*
X00432514Y00807203D01*
X00432444Y00807162D01*
X00432430Y00807148D01*
X00432417D01*
X00423957Y00803709D01*
X00423846Y00803681D01*
X00423735Y00803667D01*
X00423666Y00803653D01*
X00423652D01*
X00423638D01*
X00423527Y00803667D01*
X00423416Y00803695D01*
X00423333Y00803736D01*
X00423250Y00803778D01*
X00423180Y00803820D01*
X00423139Y00803861D01*
X00423111Y00803889D01*
X00423097Y00803903D01*
X00423028Y00803986D01*
X00422986Y00804083D01*
X00422931Y00804263D01*
X00422917Y00804333D01*
X00422903Y00804388D01*
Y00804444D01*
X00422917Y00804610D01*
X00422972Y00804749D01*
X00423055Y00804874D01*
X00423139Y00804971D01*
X00423222Y00805040D01*
X00423305Y00805082D01*
X00423361Y00805109D01*
X00423374Y00805123D01*
X00425163Y00805844D01*
Y00810171D01*
X00423374Y00810892D01*
X00423222Y00810976D01*
X00423097Y00811087D01*
X00423014Y00811198D01*
X00422958Y00811309D01*
X00422931Y00811406D01*
X00422917Y00811489D01*
X00422903Y00811558D01*
Y00811572D01*
X00422917Y00811683D01*
X00422931Y00811794D01*
X00422972Y00811891D01*
X00423014Y00811974D01*
X00423042Y00812030D01*
X00423083Y00812085D01*
X00423097Y00812113D01*
X00423111Y00812127D01*
X00423194Y00812210D01*
X00423277Y00812265D01*
X00423374Y00812307D01*
X00423458Y00812335D01*
X00423527Y00812349D01*
X00423582Y00812363D01*
X00423624D01*
X00423638D01*
X00423763Y00812349D01*
D02*
G37*
G36*
X00428381Y00802308D02*
X00428728Y00802280D01*
X00429061Y00802225D01*
X00429366Y00802141D01*
X00429657Y00802058D01*
X00429934Y00801961D01*
X00430198Y00801864D01*
X00430420Y00801767D01*
X00430642Y00801656D01*
X00430822Y00801559D01*
X00430988Y00801462D01*
X00431113Y00801379D01*
X00431224Y00801309D01*
X00431293Y00801254D01*
X00431349Y00801212D01*
X00431363Y00801198D01*
X00431626Y00800963D01*
X00431862Y00800713D01*
X00432056Y00800463D01*
X00432223Y00800200D01*
X00432375Y00799950D01*
X00432500Y00799687D01*
X00432597Y00799437D01*
X00432680Y00799187D01*
X00432736Y00798966D01*
X00432777Y00798758D01*
X00432819Y00798563D01*
X00432833Y00798411D01*
X00432847Y00798272D01*
X00432860Y00798175D01*
Y00795263D01*
X00432847Y00795152D01*
X00432819Y00795055D01*
X00432791Y00794958D01*
X00432749Y00794874D01*
X00432694Y00794819D01*
X00432666Y00794763D01*
X00432639Y00794736D01*
X00432625Y00794722D01*
X00432542Y00794652D01*
X00432444Y00794597D01*
X00432361Y00794556D01*
X00432278Y00794528D01*
X00432209Y00794514D01*
X00432153Y00794500D01*
X00432112D01*
X00432098D01*
X00423874D01*
X00423763Y00794514D01*
X00423666Y00794542D01*
X00423569Y00794569D01*
X00423485Y00794611D01*
X00423430Y00794652D01*
X00423374Y00794694D01*
X00423347Y00794708D01*
X00423333Y00794722D01*
X00423264Y00794819D01*
X00423208Y00794902D01*
X00423166Y00794999D01*
X00423139Y00795082D01*
X00423125Y00795152D01*
X00423111Y00795207D01*
Y00798092D01*
X00423125Y00798439D01*
X00423180Y00798758D01*
X00423250Y00799063D01*
X00423361Y00799354D01*
X00423471Y00799631D01*
X00423596Y00799881D01*
X00423749Y00800117D01*
X00423888Y00800339D01*
X00424026Y00800533D01*
X00424179Y00800699D01*
X00424304Y00800838D01*
X00424428Y00800963D01*
X00424525Y00801060D01*
X00424595Y00801129D01*
X00424650Y00801171D01*
X00424664Y00801185D01*
X00424942Y00801379D01*
X00425219Y00801559D01*
X00425510Y00801712D01*
X00425801Y00801836D01*
X00426079Y00801947D01*
X00426356Y00802044D01*
X00426633Y00802114D01*
X00426883Y00802183D01*
X00427119Y00802225D01*
X00427341Y00802266D01*
X00427535Y00802294D01*
X00427701Y00802308D01*
X00427840D01*
X00427937Y00802322D01*
X00427993D01*
X00428020D01*
X00428381Y00802308D01*
D02*
G37*
%LPC*%
G36*
X00297091Y00734490D02*
X00297077D01*
X00297035D01*
X00296966D01*
X00296869Y00734476D01*
X00296758Y00734463D01*
X00296633Y00734449D01*
X00296480Y00734421D01*
X00296314Y00734393D01*
X00295953Y00734296D01*
X00295759Y00734241D01*
X00295551Y00734157D01*
X00295343Y00734060D01*
X00295135Y00733963D01*
X00294927Y00733839D01*
X00294719Y00733700D01*
X00294705Y00733686D01*
X00294664Y00733658D01*
X00294608Y00733617D01*
X00294525Y00733547D01*
X00294428Y00733464D01*
X00294331Y00733353D01*
X00294220Y00733242D01*
X00294095Y00733117D01*
X00293984Y00732965D01*
X00293873Y00732798D01*
X00293776Y00732632D01*
X00293679Y00732452D01*
X00293596Y00732258D01*
X00293540Y00732049D01*
X00293499Y00731827D01*
X00293485Y00731606D01*
Y00731550D01*
X00293499Y00731495D01*
Y00731412D01*
X00293526Y00731314D01*
X00293554Y00731204D01*
X00293582Y00731065D01*
X00293637Y00730926D01*
X00293693Y00730773D01*
X00293776Y00730621D01*
X00293873Y00730455D01*
X00293998Y00730302D01*
X00294137Y00730136D01*
X00294289Y00729969D01*
X00294483Y00729803D01*
X00294691Y00729650D01*
X00294705Y00729636D01*
X00294733Y00729622D01*
X00294802Y00729581D01*
X00294886Y00729539D01*
X00294983Y00729484D01*
X00295093Y00729428D01*
X00295232Y00729359D01*
X00295385Y00729290D01*
X00295551Y00729220D01*
X00295732Y00729151D01*
X00296106Y00729040D01*
X00296536Y00728957D01*
X00296758Y00728943D01*
X00296980Y00728929D01*
X00296994D01*
X00297035D01*
X00297104D01*
X00297188Y00728943D01*
X00297299Y00728957D01*
X00297437Y00728971D01*
X00297590Y00728998D01*
X00297742Y00729026D01*
X00298103Y00729109D01*
X00298505Y00729248D01*
X00298699Y00729331D01*
X00298907Y00729428D01*
X00299115Y00729553D01*
X00299323Y00729678D01*
X00299337Y00729692D01*
X00299379Y00729719D01*
X00299434Y00729761D01*
X00299517Y00729830D01*
X00299601Y00729914D01*
X00299698Y00730011D01*
X00299809Y00730122D01*
X00299920Y00730247D01*
X00300044Y00730385D01*
X00300142Y00730538D01*
X00300253Y00730704D01*
X00300336Y00730884D01*
X00300419Y00731079D01*
X00300474Y00731287D01*
X00300516Y00731495D01*
X00300530Y00731717D01*
Y00731800D01*
X00300516Y00731883D01*
X00300502Y00731994D01*
X00300488Y00732119D01*
X00300447Y00732271D01*
X00300405Y00732424D01*
X00300336Y00732576D01*
X00300322D01*
X00300308Y00732549D01*
X00300225Y00732493D01*
X00300114Y00732410D01*
X00299989Y00732313D01*
X00299837Y00732216D01*
X00299698Y00732133D01*
X00299559Y00732077D01*
X00299448Y00732049D01*
X00299434D01*
X00299407D01*
X00299351Y00732063D01*
X00299282Y00732077D01*
X00299212Y00732105D01*
X00299143Y00732133D01*
X00299060Y00732188D01*
X00298990Y00732258D01*
X00298977Y00732271D01*
X00298963Y00732299D01*
X00298935Y00732341D01*
X00298894Y00732396D01*
X00298824Y00732549D01*
X00298810Y00732646D01*
X00298796Y00732743D01*
Y00732771D01*
X00298810Y00732826D01*
X00298824Y00732937D01*
X00298866Y00733062D01*
X00298921Y00733214D01*
X00299018Y00733381D01*
X00299143Y00733561D01*
X00299323Y00733741D01*
X00299310Y00733755D01*
X00299282Y00733769D01*
X00299226Y00733811D01*
X00299143Y00733852D01*
X00299060Y00733922D01*
X00298935Y00733977D01*
X00298810Y00734046D01*
X00298672Y00734116D01*
X00298505Y00734185D01*
X00298339Y00734255D01*
X00297964Y00734379D01*
X00297534Y00734463D01*
X00297313Y00734476D01*
X00297091Y00734490D01*
D02*
G37*
G36*
X00426675Y00809561D02*
Y00806454D01*
X00430489Y00808008D01*
X00426675Y00809561D01*
D02*
G37*
G36*
X00428104Y00800824D02*
X00428034D01*
X00427993D01*
X00427979D01*
X00427743Y00800810D01*
X00427521Y00800796D01*
X00427091Y00800713D01*
X00426703Y00800602D01*
X00426536Y00800533D01*
X00426384Y00800463D01*
X00426231Y00800394D01*
X00426106Y00800325D01*
X00425996Y00800269D01*
X00425899Y00800214D01*
X00425829Y00800172D01*
X00425774Y00800131D01*
X00425746Y00800117D01*
X00425732Y00800103D01*
X00425538Y00799950D01*
X00425372Y00799784D01*
X00425219Y00799617D01*
X00425094Y00799451D01*
X00424997Y00799285D01*
X00424900Y00799118D01*
X00424831Y00798952D01*
X00424775Y00798799D01*
X00424734Y00798661D01*
X00424692Y00798522D01*
X00424664Y00798397D01*
X00424650Y00798300D01*
Y00798217D01*
X00424636Y00798147D01*
Y00796025D01*
X00431349D01*
Y00798092D01*
X00431335Y00798314D01*
X00431307Y00798522D01*
X00431252Y00798730D01*
X00431182Y00798910D01*
X00431002Y00799257D01*
X00430891Y00799409D01*
X00430794Y00799548D01*
X00430697Y00799673D01*
X00430586Y00799770D01*
X00430503Y00799867D01*
X00430420Y00799950D01*
X00430336Y00800006D01*
X00430281Y00800047D01*
X00430253Y00800075D01*
X00430239Y00800089D01*
X00430045Y00800214D01*
X00429851Y00800339D01*
X00429657Y00800436D01*
X00429463Y00800519D01*
X00429074Y00800644D01*
X00428728Y00800727D01*
X00428575Y00800769D01*
X00428423Y00800782D01*
X00428298Y00800796D01*
X00428187Y00800810D01*
X00428104Y00800824D01*
D02*
G37*
%LPD*%
D59*
X00272000Y00808500D02*
X00322000D01*
X00272000Y00663500D02*
Y00808500D01*
Y00663500D02*
X00322000D01*
Y00808500D01*
X00385500Y00849500D02*
X00468000D01*
Y00784500D02*
Y00849500D01*
X00385500Y00784500D02*
X00468000D01*
X00385500D02*
Y00849500D01*
M02*
