G04*
G04 #@! TF.GenerationSoftware,Altium Limited,Altium Designer,20.0.14 (345)*
G04*
G04 Layer_Physical_Order=2*
G04 Layer_Color=16711680*
%FSAX44Y44*%
%MOMM*%
G71*
G01*
G75*
%ADD11C,0.2500*%
%ADD13R,1.2500X1.0000*%
%ADD14R,1.0000X1.2500*%
%ADD34P,1.7318X8X202.5*%
%ADD35C,1.6000*%
%ADD36C,2.0000*%
%ADD37R,2.0000X2.0000*%
%ADD38R,2.0000X2.0000*%
%ADD39C,0.6000*%
%ADD40R,1.4000X0.4000*%
%ADD41R,1.6000X2.1000*%
%ADD42R,1.9000X1.8000*%
%ADD43R,1.9000X1.7500*%
%ADD44R,3.3000X1.5000*%
%ADD45R,1.0000X1.5000*%
%ADD46R,2.0000X4.3000*%
%ADD47R,1.7000X2.5000*%
D11*
X00487000Y00746507D02*
Y00752475D01*
X00402590Y00630588D02*
X00475812D01*
X00316275D02*
X00402590D01*
X00364024Y00740664D02*
Y00740907D01*
Y00736457D02*
Y00740664D01*
X00310525Y00787908D02*
X00330200D01*
X00314325Y00740664D02*
X00364024D01*
X00310525Y00787908D02*
Y00788000D01*
Y00744464D02*
Y00787908D01*
X00441706Y00764032D02*
X00467000D01*
X00429768Y00855726D02*
X00446442Y00872400D01*
X00419100Y00845058D02*
X00429768Y00855726D01*
X00421133Y00760725D02*
X00452781D01*
X00307793Y00859589D02*
X00333293D01*
X00307793Y00842442D02*
Y00859589D01*
X00407924Y00777494D02*
Y00833192D01*
X00373126Y00796544D02*
Y00833192D01*
X00367928Y00853192D02*
Y00884292D01*
X00487000Y00732689D02*
X00487000Y00746507D01*
X00413200Y00542486D02*
Y00617000D01*
X00406908Y00536194D02*
X00413200Y00542486D01*
X00332806Y00536194D02*
X00406908D01*
X00318000Y00551000D02*
X00332806Y00536194D01*
X00283210Y00802894D02*
X00290525Y00795532D01*
X00283210Y00802894D02*
Y00882650D01*
X00288899Y00888339D01*
X00307793D01*
X00293275Y00624167D02*
Y00693588D01*
Y00624167D02*
X00302000Y00615442D01*
Y00606000D02*
Y00615442D01*
Y00567000D02*
Y00606000D01*
Y00567000D02*
X00318000Y00551000D01*
X00467000Y00788000D02*
Y00832866D01*
X00458110Y00841756D02*
X00467000Y00832866D01*
X00434975Y00841756D02*
X00458110D01*
X00429768Y00846963D02*
X00434975Y00841756D01*
X00429768Y00846963D02*
Y00855726D01*
X00446442Y00872400D02*
X00516000D01*
X00387856Y00845058D02*
X00419100D01*
X00385240Y00842442D02*
X00387856Y00845058D01*
X00307793Y00842442D02*
X00385240D01*
X00307793Y00812800D02*
Y00842442D01*
X00290525Y00795532D02*
X00307793Y00812800D01*
X00290525Y00788000D02*
Y00795532D01*
X00404114Y00676148D02*
X00497586D01*
X00500888Y00679450D01*
Y00725170D01*
X00508000Y00732282D01*
X00524002D01*
X00528320Y00736600D01*
Y00758480D01*
X00516000Y00770800D02*
X00528320Y00758480D01*
X00311404Y00720852D02*
X00330200Y00702056D01*
Y00678815D02*
Y00702056D01*
Y00678815D02*
X00333375Y00675640D01*
X00356870D01*
X00391668Y00710438D01*
X00412750Y00772668D02*
X00461518D01*
X00407924Y00777494D02*
X00412750Y00772668D01*
X00407924Y00833192D02*
X00408027D01*
X00373126D02*
X00373239D01*
X00373126Y00796544D02*
X00393700Y00775970D01*
Y00746125D02*
Y00775970D01*
Y00746125D02*
X00396875Y00742950D01*
X00425165D01*
X00434678Y00752462D01*
X00452006D01*
X00461518Y00742950D01*
X00464000Y00617000D02*
X00476480Y00604520D01*
X00501650D01*
X00501904Y00634238D01*
X00482600Y00653542D02*
X00501904Y00634238D01*
X00401955Y00653542D02*
X00482600D01*
X00395181Y00660316D02*
X00401955Y00653542D01*
X00395181Y00660316D02*
Y00704596D01*
X00439928Y00746712D01*
X00294025Y00823775D02*
Y00871260D01*
X00294386Y00871621D01*
X00313075D01*
X00320927Y00879473D01*
Y00883666D01*
X00323850Y00886589D01*
X00334293D01*
X00333293Y00859589D02*
Y00868589D01*
X00367928Y00853192D02*
X00373239D01*
X00352631Y00899589D02*
X00367928Y00884292D01*
X00334293Y00899589D02*
X00352631D01*
X00388759Y00853193D02*
X00408027D01*
X00381508Y00845942D02*
X00388759Y00853193D01*
X00364998Y00845942D02*
X00381508D01*
X00345694Y00865246D02*
X00364998Y00845942D01*
X00345694Y00865246D02*
Y00889000D01*
X00341605Y00893089D02*
X00345694Y00889000D01*
X00334293Y00893089D02*
X00341605D01*
X00316275Y00693588D02*
Y00704910D01*
X00408946Y00748538D02*
X00421133Y00760725D01*
X00452781D02*
X00467000Y00746506D01*
X00438600Y00602292D02*
Y00617000D01*
Y00602292D02*
X00456184Y00584708D01*
X00494284Y00723684D02*
X00516000Y00745400D01*
X00494284Y00693674D02*
Y00723684D01*
X00494030Y00693420D02*
X00494284Y00693674D01*
X00407035Y00693420D02*
X00494030D01*
X00400431Y00700024D02*
X00407035Y00693420D01*
X00412750Y00670560D02*
X00523875D01*
X00528320Y00675005D01*
Y00707680D01*
X00516000Y00720000D02*
X00528320Y00707680D01*
X00467000Y00746507D02*
Y00760718D01*
X00467000Y00746506D02*
X00467000Y00746507D01*
X00467000Y00732689D02*
Y00746506D01*
X00467000Y00760718D02*
Y00764032D01*
X00487000Y00752475D02*
Y00760718D01*
X00483063Y00748538D02*
X00487000Y00752475D01*
X00475788Y00748538D02*
X00483063D01*
X00402590Y00630588D02*
X00419354Y00647352D01*
X00475812Y00630588D02*
X00489400Y00617000D01*
X00339275Y00711708D02*
X00364024Y00736457D01*
X00339275Y00693588D02*
Y00711708D01*
X00310525Y00744464D02*
X00314325Y00740664D01*
X00334025Y00791733D02*
Y00823775D01*
X00330200Y00787908D02*
X00334025Y00791733D01*
X00322000Y00582000D02*
Y00606000D01*
Y00582000D02*
X00353000Y00551000D01*
X00487000Y00818000D02*
X00516000Y00847000D01*
X00487000Y00788000D02*
Y00818000D01*
X00482441Y00847000D02*
X00516000D01*
X00476250Y00853192D02*
X00482441Y00847000D01*
X00442696Y00853192D02*
X00476250D01*
X00487000Y00702012D02*
Y00732689D01*
X00487000Y00760718D02*
Y00788000D01*
X00316275Y00630588D02*
Y00693588D01*
Y00620913D02*
Y00630588D01*
Y00620913D02*
X00322000Y00615188D01*
Y00606000D02*
Y00615188D01*
X00467000Y00702012D02*
Y00732689D01*
X00467000Y00764032D02*
Y00788000D01*
X00307793Y00910839D02*
Y00939589D01*
Y00888339D02*
Y00910839D01*
X00321790Y00912589D02*
X00334293D01*
X00320040Y00910839D02*
X00321790Y00912589D01*
X00307793Y00910839D02*
X00320040D01*
X00333293Y00922004D02*
Y00930589D01*
Y00922004D02*
X00334293Y00921004D01*
Y00912589D02*
Y00921004D01*
Y00906089D02*
Y00912589D01*
X00290525Y00766992D02*
Y00788000D01*
Y00766992D02*
X00296024Y00761492D01*
Y00740907D02*
Y00761492D01*
Y00718521D02*
Y00740907D01*
X00293275Y00715772D02*
X00296024Y00718521D01*
X00293275Y00693588D02*
Y00715772D01*
X00429442Y00833192D02*
X00442696D01*
X00421132Y00841502D02*
X00429442Y00833192D01*
X00394644Y00841502D02*
X00421132D01*
X00386334Y00833192D02*
X00394644Y00841502D01*
X00373239Y00833192D02*
X00386334D01*
D13*
X00442696Y00853192D02*
D03*
Y00833192D02*
D03*
X00408027Y00833192D02*
D03*
Y00853193D02*
D03*
X00373239Y00833192D02*
D03*
Y00853192D02*
D03*
D14*
X00322000Y00606000D02*
D03*
X00302000D02*
D03*
X00487000Y00788000D02*
D03*
X00467000D02*
D03*
X00487000Y00702012D02*
D03*
X00467000D02*
D03*
X00487000Y00760718D02*
D03*
X00467000D02*
D03*
X00487000Y00732689D02*
D03*
X00467000D02*
D03*
X00290525Y00788000D02*
D03*
X00310525D02*
D03*
D34*
X00353000Y00551000D02*
D03*
D35*
X00318000D02*
D03*
D36*
X00413200Y00617000D02*
D03*
X00464000D02*
D03*
X00438600D02*
D03*
X00516000Y00872400D02*
D03*
Y00821600D02*
D03*
Y00745400D02*
D03*
Y00720000D02*
D03*
Y00770800D02*
D03*
Y00796200D02*
D03*
Y00847000D02*
D03*
D37*
X00489400Y00617000D02*
D03*
D38*
X00516000Y00694600D02*
D03*
D39*
X00404114Y00676148D02*
D03*
X00311404Y00720852D02*
D03*
X00391668Y00710438D02*
D03*
X00461518Y00772668D02*
D03*
Y00742950D02*
D03*
X00439928Y00746712D02*
D03*
X00316275Y00704910D02*
D03*
X00408946Y00748538D02*
D03*
X00456184Y00584708D02*
D03*
X00400431Y00700024D02*
D03*
X00412750Y00670560D02*
D03*
X00441706Y00764032D02*
D03*
X00475788Y00748538D02*
D03*
X00419354Y00647352D02*
D03*
D40*
X00334293Y00886589D02*
D03*
Y00893089D02*
D03*
Y00899589D02*
D03*
Y00906089D02*
D03*
Y00912589D02*
D03*
D41*
X00333293Y00868589D02*
D03*
Y00930589D02*
D03*
D42*
X00307793Y00859589D02*
D03*
Y00939589D02*
D03*
D43*
Y00888339D02*
D03*
Y00910839D02*
D03*
D44*
X00316275Y00630588D02*
D03*
D45*
X00339275Y00693588D02*
D03*
X00293275D02*
D03*
X00316275D02*
D03*
D46*
X00364024Y00740907D02*
D03*
X00296024D02*
D03*
D47*
X00294025Y00823775D02*
D03*
X00334025D02*
D03*
M02*
