G04*
G04 #@! TF.GenerationSoftware,Altium Limited,Altium Designer,20.0.14 (345)*
G04*
G04 Layer_Color=16711935*
%FSAX44Y44*%
%MOMM*%
G71*
G01*
G75*
%ADD10C,0.1000*%
%ADD11C,0.5000*%
%ADD12C,0.0500*%
G36*
X00330500Y00591000D02*
Y00511000D01*
X00322500Y00513000D01*
X00315000Y00516500D01*
X00309250Y00521000D01*
X00304250Y00526000D01*
X00299750Y00533250D01*
X00297000Y00540000D01*
X00295500Y00547750D01*
X00295750Y00555250D01*
X00297000Y00562250D01*
X00300000Y00569500D01*
X00303500Y00575000D01*
X00308500Y00580500D01*
X00314250Y00584750D01*
X00323250Y00589000D01*
X00330500Y00591000D01*
D02*
G37*
D10*
X00375500Y00551000D02*
G03*
X00375500Y00551000I-00040000J00000000D01*
G01*
X00383000Y00534492D02*
X00395000D01*
X00383000Y00514500D02*
X00395000D01*
Y00534492D01*
X00383000Y00514500D02*
Y00534492D01*
X00286292Y00860589D02*
X00336293D01*
X00286292Y00938589D02*
X00336293D01*
X00286292Y00860589D02*
Y00938589D01*
X00336293Y00860589D02*
Y00938589D01*
X00524445Y00611808D02*
Y00631800D01*
X00512445Y00611808D02*
Y00631800D01*
X00524445D01*
X00512445Y00611808D02*
X00524445D01*
X00424931Y00804011D02*
Y00816011D01*
X00404939Y00804011D02*
Y00816011D01*
Y00804011D02*
X00424931D01*
X00404939Y00816011D02*
X00424931D01*
X00308750Y00819000D02*
Y00851000D01*
X00293250Y00819000D02*
Y00851000D01*
X00308750D01*
X00293250Y00819000D02*
X00308750D01*
X00295000Y00778473D02*
X00307000D01*
X00295000Y00798465D02*
X00307000D01*
X00295000Y00778473D02*
Y00798465D01*
X00307000Y00778473D02*
Y00798465D01*
X00295000Y00643758D02*
X00307000D01*
X00295000Y00663750D02*
X00307000D01*
X00295000Y00643758D02*
Y00663750D01*
X00307000Y00643758D02*
Y00663750D01*
X00302508Y00612000D02*
X00322500D01*
X00302508Y00600000D02*
X00322500D01*
Y00612000D01*
X00302508Y00600000D02*
Y00612000D01*
X00308750Y00703910D02*
Y00735910D01*
X00293250Y00703910D02*
Y00735910D01*
X00308750D01*
X00293250Y00703910D02*
X00308750D01*
X00476700Y00604300D02*
X00502100D01*
X00476700D02*
Y00629700D01*
X00502100Y00604300D02*
Y00629700D01*
X00470350Y00604300D02*
X00476700Y00610650D01*
X00457650Y00604300D02*
X00470350D01*
X00451300Y00610650D02*
X00457650Y00604300D01*
X00451300Y00610650D02*
Y00623350D01*
X00457650Y00629700D01*
X00470350D01*
X00476700Y00623350D01*
Y00629700D02*
X00502100D01*
X00444950D02*
X00451300Y00623350D01*
X00432250Y00629700D02*
X00444950D01*
X00425900Y00623350D02*
X00432250Y00629700D01*
X00425900Y00610650D02*
Y00623350D01*
Y00610650D02*
X00432250Y00604300D01*
X00444950D01*
X00451300Y00610650D01*
X00419550Y00604300D02*
X00425900Y00610650D01*
X00406850Y00604300D02*
X00419550D01*
X00400500Y00610650D02*
X00406850Y00604300D01*
X00400500Y00610650D02*
Y00623350D01*
X00406850Y00629700D01*
X00419550D01*
X00425900Y00623350D01*
X00436696Y00852684D02*
X00448696D01*
X00436696Y00832691D02*
X00448696D01*
X00436696D02*
Y00852684D01*
X00448696Y00832691D02*
Y00852684D01*
X00414027Y00832692D02*
Y00852684D01*
X00402027Y00832692D02*
Y00852684D01*
Y00832692D02*
X00414027D01*
X00402027Y00852684D02*
X00414027D01*
X00379239Y00832692D02*
Y00852684D01*
X00367239Y00832692D02*
Y00852684D01*
Y00832692D02*
X00379239D01*
X00367239Y00852684D02*
X00379239D01*
X00409771Y00641111D02*
Y00653111D01*
X00429763Y00641111D02*
Y00653111D01*
X00409771D02*
X00429763D01*
X00409771Y00641111D02*
X00429763D01*
X00494592Y00576300D02*
Y00588300D01*
X00474600Y00576300D02*
Y00588300D01*
Y00576300D02*
X00494592D01*
X00474600Y00588300D02*
X00494592D01*
X00440042Y00922500D02*
X00460034D01*
X00440042Y00910500D02*
X00460034D01*
X00440042D02*
Y00922500D01*
X00460034Y00910500D02*
Y00922500D01*
X00370797Y00910500D02*
X00390789D01*
X00370797Y00922500D02*
X00390789D01*
Y00910500D02*
Y00922500D01*
X00370797Y00910500D02*
Y00922500D01*
X00538000Y00520508D02*
Y00540500D01*
X00526000Y00520508D02*
Y00540500D01*
X00538000D01*
X00526000Y00520508D02*
X00538000D01*
X00467508Y00794000D02*
X00487500D01*
X00467508Y00782000D02*
X00487500D01*
Y00794000D01*
X00467508Y00782000D02*
Y00794000D01*
X00467508Y00708012D02*
X00487500D01*
X00467508Y00696012D02*
X00487500D01*
Y00708012D01*
X00467508Y00696012D02*
Y00708012D01*
X00363825Y00774212D02*
X00453825D01*
Y00684212D02*
Y00774212D01*
X00363825Y00684212D02*
X00453825D01*
X00363825D02*
Y00774212D01*
X00467508Y00766718D02*
X00487500D01*
X00467508Y00754718D02*
X00487500D01*
Y00766718D01*
X00467508Y00754718D02*
Y00766718D01*
X00467508Y00738689D02*
X00487500D01*
X00467508Y00726689D02*
X00487500D01*
Y00738689D01*
X00467508Y00726689D02*
Y00738689D01*
X00291033Y00782000D02*
Y00794000D01*
X00311025Y00782000D02*
Y00794000D01*
X00291033Y00782000D02*
X00311025D01*
X00291033Y00794000D02*
X00311025D01*
X00367024Y00718658D02*
Y00763158D01*
X00293020Y00718658D02*
Y00763158D01*
X00350275Y00718657D02*
Y00763157D01*
X00293020Y00718658D02*
X00367024D01*
X00293020Y00763158D02*
X00367024D01*
X00289025Y00810274D02*
X00339025D01*
Y00837274D01*
X00289025D02*
X00339025D01*
X00289025Y00810274D02*
Y00837274D01*
X00503300Y00840650D02*
X00509650Y00834300D01*
X00503300Y00840650D02*
Y00853350D01*
X00509650Y00859700D01*
X00522350D01*
X00528700Y00853350D01*
Y00840650D02*
Y00853350D01*
X00522350Y00834300D02*
X00528700Y00840650D01*
X00503300Y00789850D02*
X00509650Y00783500D01*
X00503300Y00789850D02*
Y00802550D01*
X00509650Y00808900D01*
X00522350D01*
X00528700Y00802550D01*
Y00789850D02*
Y00802550D01*
X00522350Y00783500D02*
X00528700Y00789850D01*
X00522350Y00758100D02*
X00528700Y00764450D01*
Y00777150D01*
X00522350Y00783500D02*
X00528700Y00777150D01*
X00509650Y00783500D02*
X00522350D01*
X00503300Y00777150D02*
X00509650Y00783500D01*
X00503300Y00764450D02*
Y00777150D01*
Y00764450D02*
X00509650Y00758100D01*
X00503300Y00739050D02*
X00509650Y00732700D01*
X00503300Y00739050D02*
Y00751750D01*
X00509650Y00758100D01*
X00522350D01*
X00528700Y00751750D01*
Y00739050D02*
Y00751750D01*
X00522350Y00732700D02*
X00528700Y00739050D01*
Y00681900D02*
Y00707300D01*
X00522350D02*
X00528700Y00713650D01*
Y00726350D01*
X00522350Y00732700D02*
X00528700Y00726350D01*
X00509650Y00732700D02*
X00522350D01*
X00503300Y00726350D02*
X00509650Y00732700D01*
X00503300Y00713650D02*
Y00726350D01*
Y00713650D02*
X00509650Y00707300D01*
X00503300Y00681900D02*
X00528700D01*
X00503300Y00707300D02*
X00528700D01*
X00503300Y00681900D02*
Y00707300D01*
X00522350Y00808900D02*
X00528700Y00815250D01*
Y00827950D01*
X00522350Y00834300D02*
X00528700Y00827950D01*
X00509650Y00834300D02*
X00522350D01*
X00503300Y00827950D02*
X00509650Y00834300D01*
X00503300Y00815250D02*
Y00827950D01*
Y00815250D02*
X00509650Y00808900D01*
X00522350Y00859700D02*
X00528700Y00866050D01*
Y00878750D01*
X00522350Y00885100D02*
X00528700Y00878750D01*
X00509650Y00885100D02*
X00522350D01*
X00503300Y00878750D02*
X00509650Y00885100D01*
X00503300Y00866050D02*
Y00878750D01*
Y00866050D02*
X00509650Y00859700D01*
D11*
X00368826Y00769212D02*
D03*
X00334025Y00814776D02*
D03*
D12*
X00415999Y00500499D02*
X00505999D01*
X00415999D02*
Y00560499D01*
X00505999D01*
Y00500499D02*
Y00560499D01*
M02*
